<svg width="38" height="26" viewBox="0 0 38 26" fill="none" xmlns="http://www.w3.org/2000/svg">
<path fill-rule="evenodd" clip-rule="evenodd" d="M20.5371 17.1811C20.5392 17.6974 20.5258 18.4804 20.5258 18.4804C20.5258 18.4804 19.8223 18.2045 19.479 17.9754C19.1354 17.7466 18.9167 17.7815 18.6757 17.6952C18.4365 17.611 15.9881 17.6999 15.738 17.6205C15.4875 17.5407 15.4921 17.4965 15.3739 17.4591C15.2578 17.4218 14.2587 17.3352 14.2587 17.3352C14.2587 17.3352 14.2816 16.7323 14.2929 16.6061C14.3042 16.4778 14.2746 16.3937 14.2566 16.3328C14.2382 16.2697 14.2587 15.7556 14.1313 15.6878C14.0061 15.62 13.5372 15.6621 13.5372 15.6621C13.5372 15.6621 13.4578 15.4681 13.3622 15.4986C13.2666 15.529 8.80195 17.854 8.39694 17.9522C7.99406 18.0504 6.36024 18.3332 6.20324 18.326C6.04625 18.3191 5.9256 18.2629 5.96653 18.1813C6.00959 18.0994 6.69012 17.188 6.79031 17.1108C6.89049 17.0339 6.89935 17.1437 7.0087 17.0339C7.12018 16.924 7.62325 16.1668 7.89845 15.9938C8.17396 15.8209 9.1022 15.4776 9.37527 15.4004C9.65078 15.3235 9.80533 15.0944 9.80533 15.0944C9.80533 15.0944 13.8332 14.3559 14.4157 14.3327C14.9982 14.3069 15.4829 14.489 15.665 14.5404C15.847 14.5919 16.9142 14.489 17.1622 14.4679C17.4103 14.4469 17.4127 14.5172 17.654 14.4447C17.895 14.37 19.0147 14.3396 19.6403 14.1993C20.2661 14.0568 20.5392 14.0006 20.5392 14.0006C20.5392 14.0006 20.5346 16.6645 20.5371 17.1811ZM32.0083 2.08347C32.0083 2.08347 31.7374 1.9595 31.6986 1.91054C31.6577 1.85907 31.5303 1.77277 31.4985 1.68835C31.4689 1.60424 31.6008 1.36603 31.6008 1.36603C31.6008 1.36603 31.6033 1.28883 31.6076 1.19091C31.6121 1.09268 31.6576 0.697864 31.5281 0.550359C31.3983 0.405679 31.296 0.323766 31.2597 0.293324C31.223 0.263195 30.8998 0.209215 30.8998 0.209215C30.8998 0.209215 30.7703 0.029384 30.7157 0.00145223C30.661 -0.0242827 30.1286 0.300542 30.1286 0.300542C30.1286 0.300542 30.1879 0.496693 30.2242 0.564482C30.2584 0.632272 30.5132 0.730504 30.5132 0.730504C30.5132 0.730504 30.3949 0.758436 30.2584 0.847252C30.1219 0.936069 30.1674 0.968709 30.1674 0.968709C30.1674 0.968709 29.8897 0.905627 29.8736 0.908138C29.8577 0.910334 29.3299 1.16047 29.3299 1.16047C29.3299 1.16047 29.3094 1.21413 29.266 1.2678C29.223 1.31927 28.9679 1.04372 28.6176 1.01798C28.2694 0.992247 27.6142 0.826225 27.4661 0.879892C27.3182 0.931362 26.0873 1.5694 26.0873 1.5694C26.0873 1.5694 26.0234 1.53896 25.9892 1.50161C25.955 1.46175 25.1337 1.98524 25.1154 2.01568C25.0973 2.04832 25.1838 2.21654 25.1838 2.21654L23.4748 3.29615L23.3475 3.32188C23.3475 3.32188 21.925 4.11622 21.7885 4.23328C21.6544 4.35003 21.5429 4.54178 21.5429 4.54178C21.5429 4.54178 20.7851 4.99968 20.7167 5.08159C20.6461 5.16319 20.7078 5.14467 20.8419 5.42964C20.9763 5.71461 22.4097 8.12396 22.4782 8.2291C22.5463 8.33423 24.5191 7.41342 24.6603 7.33653C24.8014 7.25933 24.8243 7.30358 24.9107 7.35756C24.995 7.41123 24.7128 7.59577 24.4852 7.77811C24.2577 7.96013 24.1801 8.18924 24.0665 8.29437C23.9525 8.39951 22.5851 8.29908 22.5851 8.29908C22.5851 8.29908 21.8795 8.55612 21.4268 8.84579C20.9763 9.13578 20.6895 9.66617 20.5508 9.82968C20.4118 9.99319 18.621 10.8578 17.8269 11.1921C17.0349 11.526 16.6662 11.8135 16.6662 11.8135L15.7764 12.0426C15.5785 12.094 15.2508 12.0284 14.7844 11.9958C14.3201 11.9632 13.3463 11.977 12.4951 12.2271C11.6441 12.4772 9.57778 13.566 9.5005 13.6083C9.42322 13.6504 9.43911 13.5707 9.26837 13.5917C9.09762 13.6127 8.29431 13.9821 8.12387 13.9749C7.95313 13.968 7.9348 13.9074 7.84378 13.8698C7.7552 13.8324 7.56155 13.8955 7.41371 13.9049C7.26588 13.9143 7.09056 13.7671 6.88805 13.704C6.68798 13.641 6.2008 13.6199 6.12352 13.6337C6.04625 13.6479 5.93934 13.7646 5.88467 13.7929C5.82999 13.8233 5.77532 13.8534 5.62504 14.0217C5.47507 14.1899 4.84005 15.7745 4.7081 16.4075C4.57401 17.0408 4.06881 18.1672 4.06881 18.1672C4.06881 18.1672 3.72274 18.0689 3.62958 18.0758C3.53611 18.0853 2.10267 17.3725 2.02967 17.3424C1.95697 17.3094 1.93865 17.4639 1.93865 17.4639C1.93865 17.4639 1.58617 17.7557 1.25384 17.896C0.919384 18.0363 0.666782 18.0878 0.514366 18.1998C0.361645 18.3122 0 19.0434 0 19.0434C0 19.0434 0.664339 19.485 1.25384 19.6789C1.84549 19.8729 3.09933 20.0483 3.09933 20.0483C3.09933 20.0483 3.10605 20.1158 2.93775 20.4105C2.76945 20.7049 0.716875 23.7121 0.648456 23.8502C0.580342 23.988 0.705268 24.121 0.769106 24.2146C0.832943 24.3103 0.985359 24.4694 1.0718 24.6376C1.15824 24.8058 1.31738 26 1.31738 26C1.31738 26 1.4927 25.904 1.63168 25.7405C1.77035 25.5769 2.30518 24.8244 2.86261 24.175C3.42005 23.5229 5.34067 19.8845 5.34067 19.8845C5.34067 19.8845 5.71392 19.7957 6.14399 19.7609C6.57405 19.7257 8.81998 18.9267 9.76899 18.8683C10.718 18.8074 11.8148 18.84 12.0128 18.819C12.2107 18.7958 12.354 18.7748 12.7547 18.8727C13.1551 18.9687 13.8696 19.2678 14.1677 19.436C14.4658 19.6042 14.6683 19.3193 14.6683 19.3193C14.6683 19.3193 16.4524 20.1393 17.1738 20.4783C17.895 20.8169 19.8795 21.2117 20.3025 21.352C20.7258 21.4945 21.5108 21.4386 21.9 21.2984C22.2891 21.1581 22.4623 21.0062 22.6874 20.7234C22.9128 20.4406 23.0377 19.9548 23.0377 19.9548C23.0377 19.9548 23.0539 19.9454 23.1266 19.8845C23.1993 19.8239 24.0869 17.5385 24.3737 16.2603C24.6627 14.9798 24.7467 13.3676 24.7467 13.3676C24.7467 13.3676 24.9813 13.2531 25.1563 13.1573C25.3316 13.0613 25.3567 12.975 25.3567 12.975C25.3567 12.975 25.4226 13.1548 25.4795 13.2669C25.5366 13.3792 25.6752 13.3183 25.6752 13.3183L26.4239 14.9494C26.4239 14.9494 26.4285 15.1201 26.3353 15.2346C26.2418 15.3514 25.7571 15.4939 25.7571 15.4939C25.7571 15.4939 25.6981 16.216 25.6844 16.2954C25.6707 16.3748 25.8051 16.3234 25.9233 16.2719C26.0439 16.2207 26.1395 16.1903 26.317 15.9775C26.4944 15.765 27.0042 14.9541 27.0226 14.6644C27.0406 14.3747 26.6084 13.136 26.6084 13.136C26.6084 13.136 26.9951 12.9376 27.1704 12.8721C27.3454 12.8043 27.2135 12.8488 27.1771 12.7249C27.1408 12.6009 27.2272 12.5519 27.3249 12.4703C27.423 12.3884 27.5186 12.4656 27.6026 12.5193C27.6869 12.573 27.6096 12.5871 27.6117 12.6712C27.6142 12.7553 27.5617 12.8721 27.5571 13.1034C27.5525 13.3372 27.689 13.7367 27.6731 13.9749C27.6573 14.2134 27.3387 16.244 27.3934 16.4006C27.448 16.5572 27.4114 16.6786 27.4364 16.7791C27.4615 16.8795 27.4205 16.9893 27.4205 16.9893C27.4205 16.9893 27.3045 17.2536 27.3365 17.3656C27.3659 17.4777 27.821 17.5175 27.9257 17.4755C28.0305 17.4334 28.0192 17.4381 28.0873 16.6529C28.1557 15.8677 27.8915 12.7974 27.8915 12.7974C27.8915 12.7974 27.9031 12.7905 27.937 12.7785C27.9737 12.7669 28.1374 12.8931 28.1851 12.9587C28.233 13.024 28.4309 13.3629 28.5379 13.4213C28.6448 13.4775 28.7608 13.4072 28.8405 13.3698C28.9203 13.3325 28.9044 13.4002 28.9612 13.4539C29.018 13.5101 29.1704 13.5616 29.1704 13.5616C29.1704 13.5616 29.1729 14.2787 29.175 14.3138C29.1796 14.349 28.8247 14.3116 28.7608 14.3254C28.6973 14.3396 28.704 14.349 28.6631 14.5288C28.6243 14.7086 28.7404 16.0105 28.77 16.0804C28.7996 16.1504 29.307 16.1457 29.3934 16.1482C29.4801 16.1504 29.5232 16.1131 29.5232 16.1131C29.5232 16.1131 29.8488 15.9847 29.9261 15.8633C30.0034 15.7415 30.0968 15.4892 30.0672 15.1901C30.0376 14.891 29.9169 14.6456 29.8555 14.6597C29.7917 14.6738 29.7144 14.6434 29.6668 14.634C29.6188 14.6245 29.6301 14.5382 29.6167 14.4168C29.6029 14.2953 29.5528 13.4727 29.5528 13.4727L29.737 13.3723C29.8305 13.3208 29.8146 13.3303 29.8464 13.2625C29.8806 13.1922 29.8806 13.1128 29.8897 13.0218C29.8986 12.9304 29.9511 12.9235 29.9808 12.8862C30.0101 12.8488 30.033 12.851 30.124 12.9445C30.215 13.0381 30.2993 12.8488 30.3516 12.7202C30.4038 12.5918 30.281 12.4493 30.2355 12.3605C30.19 12.2717 30.2376 12.2717 30.2764 12.1945C30.3128 12.1173 30.3949 11.7061 30.3949 11.7061C30.3949 11.7061 30.5107 11.671 30.5996 11.6148C30.6885 11.5589 30.6518 11.4723 30.6225 11.3367C30.595 11.2015 30.4609 11.2037 30.4609 11.2037L30.3219 10.9771C30.3219 10.9771 30.5474 11.005 30.8363 10.9699C31.1253 10.935 32.2062 10.9909 32.2062 10.9909C32.2062 10.9909 32.2313 10.9981 32.3131 11.1406C32.395 11.2831 32.6681 11.5006 32.7795 11.5684C32.891 11.6358 32.9662 11.6453 33.0184 11.6525C33.0709 11.6594 33.1482 11.6032 33.187 11.6242C33.2255 11.6452 33.4167 11.7156 33.5102 11.7199C33.6033 11.7272 33.6308 11.6032 33.658 11.5169C33.683 11.4303 33.6329 11.2784 33.6329 11.2784C33.6329 11.2784 33.8129 11.1663 33.8626 11.0308C33.9106 10.8952 33.8605 10.839 33.8605 10.839C33.8605 10.839 33.8901 10.8158 33.9561 10.8089C34.0221 10.8016 34.0609 10.5798 34.0312 10.4815C34.0016 10.3836 33.7399 10.2455 33.7399 10.2455C33.7399 10.2455 33.7261 10.152 33.7261 10.0726C33.7261 9.99319 34.1244 8.70331 34.2063 8.27805C34.286 7.8528 34.3724 6.32471 34.3724 6.32471C34.3724 6.32471 34.443 6.29647 34.4705 6.29647C34.4977 6.29647 34.6159 6.22648 34.6342 6.1681C34.6525 6.10722 34.5294 5.68197 34.5294 5.68197C34.5294 5.68197 34.9302 5.34773 35.0734 5.29877C35.2167 5.24981 35.6128 5.37817 35.8334 5.37126C36.0542 5.36405 36.2179 5.20995 36.2659 5.23317C36.3135 5.25671 36.4388 5.5558 36.5026 5.6352C36.5661 5.71712 37.0166 5.77769 37.0805 5.76388C37.144 5.74976 37.1214 5.62579 37.1306 5.57683C37.1397 5.52787 37.2057 5.46479 37.2057 5.46479L37.2738 5.46228C37.2738 5.46228 37.4171 5.6283 37.506 5.67977C37.5949 5.73092 37.7448 5.64211 37.8313 5.52316C37.9177 5.4039 38.0295 4.79631 37.9928 4.57913C37.9565 4.36164 37.8905 4.31268 37.8178 4.28004C37.7448 4.24709 37.5878 4.26811 37.5356 4.27533C37.4834 4.28224 36.8438 4.14446 36.8438 4.14446C36.8438 4.14446 36.8212 4.14195 36.8141 4.08828C36.8074 4.03462 36.7915 3.96463 36.7757 3.93168C36.7573 3.89904 36.7277 3.71921 36.7277 3.71921C36.7277 3.71921 37.1373 3.53687 37.1828 3.4901C37.2283 3.44334 37.283 2.07625 37.2396 2.0342C37.1966 1.99214 36.7094 1.90113 36.7094 1.90113C36.7094 1.90113 36.5524 1.73511 36.491 1.68395C36.4296 1.63248 36.3661 1.62997 36.3661 1.62997C36.3661 1.62997 36.2818 1.38706 36.1565 1.14634C36.0313 0.905627 35.9152 0.86828 35.6171 0.795783C35.319 0.721089 34.2973 0.562285 33.9198 0.697864C33.5419 0.83313 33.3962 0.957097 33.187 1.25619C32.9799 1.55779 32.9616 1.73981 32.9365 1.82392C32.9115 1.91054 32.848 2.00156 32.7979 2.04361C32.7499 2.08347 32.691 2.16068 32.5795 2.13494C32.461 2.12301 32.0083 2.08347 32.0083 2.08347ZM30.9365 2.58593C30.8772 2.56019 30.8363 2.53195 30.8659 2.50402C30.8977 2.47608 31.066 2.3358 31.1207 2.26801C31.1754 2.19802 31.3006 2.10199 31.3006 2.10199C31.3006 2.10199 31.2981 2.08096 31.2981 2.08818L31.5941 2.38727C31.5941 2.38727 31.5871 2.49711 31.5553 2.52504C31.5236 2.55078 30.9933 2.61166 30.9365 2.58593ZM33.906 6.36206C33.906 6.36206 33.8993 6.69598 33.8672 6.7054C33.8376 6.71481 33.7762 6.69159 33.7921 6.65393C33.8083 6.61658 33.8083 6.38779 33.8309 6.36425C33.8513 6.34103 33.906 6.36206 33.906 6.36206ZM32.8684 9.18474C32.9069 9.16371 33.2166 9.08651 33.2166 9.08651C33.2166 9.08651 33.319 9.18945 33.3031 9.22679C33.2872 9.26414 33.2301 9.41133 33.1482 9.44178C33.0664 9.47222 32.8434 9.53059 32.6955 9.63353C32.5453 9.73616 32.5043 9.89747 32.4246 9.9185C32.3449 9.93953 32.2334 9.91599 32.1766 9.91159C32.1173 9.90689 31.8718 9.84851 31.8626 9.81807C31.8534 9.78763 31.9127 9.71293 32.0013 9.62631C32.0902 9.5422 32.486 9.11695 32.5111 9.09592C32.5361 9.0749 32.5428 9.02123 32.5841 9.06328C32.6271 9.10534 32.6635 9.19164 32.6955 9.21047C32.7227 9.22899 32.8296 9.20577 32.8684 9.18474ZM33.2301 8.33172C33.2505 8.35746 33.2872 8.35997 33.2915 8.43466C33.296 8.51187 33.3303 8.85991 33.271 8.85521C33.212 8.8505 33.1094 8.44878 33.1094 8.44878C33.1323 8.41363 33.2096 8.3085 33.2301 8.33172ZM33.6443 7.64472C33.6806 7.64724 33.8171 7.7734 33.8083 7.81294C33.8012 7.8528 33.501 8.6917 33.476 8.75007C33.4509 8.80844 33.3666 9.14739 33.3803 9.05387C33.3941 8.96034 33.3803 8.39261 33.3917 8.32262L33.4735 7.83177C33.519 7.77089 33.6079 7.64472 33.6443 7.64472ZM31.0321 1.89642C31.0342 1.89642 31.0342 1.89642 31.0321 1.89642ZM30.5975 2.40108C30.5975 2.40108 30.2059 2.31006 30.1307 2.24478C30.0535 2.17919 30.0376 2.15346 30.0467 2.13023C30.0535 2.1045 30.1173 1.97582 30.1628 1.95009C30.2083 1.92435 30.5587 1.89642 30.6885 1.88952C30.8113 1.8823 31.0205 1.90113 31.0321 1.89893C31.0321 1.90803 31.0229 2.04612 31.0025 2.09508C30.9796 2.14655 30.8409 2.29123 30.7749 2.33109C30.7065 2.36844 30.5975 2.40108 30.5975 2.40108ZM30.8885 0.674326C30.8885 0.632272 30.9341 0.491985 30.9887 0.503911C31.0455 0.51772 31.1937 0.53404 31.2823 0.636979C31.3711 0.739919 31.4622 0.926654 31.4212 1.06474C31.38 1.20252 31.3165 1.43131 31.2435 1.38486C31.1708 1.3381 30.8885 0.674326 30.8885 0.674326ZM33.8376 6.9345C33.84 6.96495 33.8513 7.3199 33.8242 7.34093C33.7967 7.36195 33.6421 7.34344 33.6443 7.3177C33.6443 7.29197 33.7444 6.93199 33.7557 6.91348C33.7695 6.89716 33.8376 6.9345 33.8376 6.9345Z" fill="white"/>
</svg>
