<svg width="25" height="25" viewBox="0 0 25 25" fill="none" xmlns="http://www.w3.org/2000/svg">
<path d="M9.37498 5.2085H7.29165C6.73911 5.2085 6.20921 5.42799 5.81851 5.81869C5.42781 6.20939 5.20831 6.73929 5.20831 7.29183V19.7918C5.20831 20.3444 5.42781 20.8743 5.81851 21.265C6.20921 21.6557 6.73911 21.8752 7.29165 21.8752H17.7083C18.2608 21.8752 18.7908 21.6557 19.1815 21.265C19.5722 20.8743 19.7916 20.3444 19.7916 19.7918V7.29183C19.7916 6.73929 19.5722 6.20939 19.1815 5.81869C18.7908 5.42799 18.2608 5.2085 17.7083 5.2085H15.625" stroke="white" stroke-width="1.5" stroke-linecap="round" stroke-linejoin="round"/>
<path d="M9.375 5.20833C9.375 4.6558 9.59449 4.12589 9.98519 3.73519C10.3759 3.34449 10.9058 3.125 11.4583 3.125H13.5417C14.0942 3.125 14.6241 3.34449 15.0148 3.73519C15.4055 4.12589 15.625 4.6558 15.625 5.20833C15.625 5.76087 15.4055 6.29077 15.0148 6.68147C14.6241 7.07217 14.0942 7.29167 13.5417 7.29167H11.4583C10.9058 7.29167 10.3759 7.07217 9.98519 6.68147C9.59449 6.29077 9.375 5.76087 9.375 5.20833Z" stroke="white" stroke-width="1.5" stroke-linecap="round" stroke-linejoin="round"/>
<path d="M9.375 17.7083V12.5" stroke="white" stroke-width="1.5" stroke-linecap="round" stroke-linejoin="round"/>
<path d="M12.5 17.7082V16.6665" stroke="white" stroke-width="1.5" stroke-linecap="round" stroke-linejoin="round"/>
<path d="M15.625 17.7085V14.5835" stroke="white" stroke-width="1.5" stroke-linecap="round" stroke-linejoin="round"/>
</svg>
