<svg width="160" height="160" viewBox="0 0 160 160" fill="none" xmlns="http://www.w3.org/2000/svg">
<path d="M105.99 128.387H103.209V128.467H105.99V128.387Z" fill="#EBEBEB"/>
<path d="M73.0112 49.184C102.957 48.96 135.466 56.672 151.984 54.0224C154.515 53.616 156.694 54.9056 156.694 56.784C156.694 57.9872 155.792 59.1776 154.342 59.8464C124.976 73.3632 76.7424 64.8576 53.5168 63.776C38.0864 63.056 21.616 69.7312 11.9168 74.5408C8.04476 76.4608 3.31836 74.8064 3.31836 71.5424C3.31836 69.9648 4.48636 68.4096 6.36156 67.4912C15.7856 62.864 45.5776 49.392 73.0112 49.184Z" fill="#FAFAFA"/>
<path d="M86.9889 12.4799C57.0433 15.8207 24.5345 30.2015 8.01607 28.6303C7.41763 28.576 6.81443 28.6472 6.24504 28.8392C5.67565 29.0313 5.15259 29.34 4.70928 29.7456C4.26597 30.1513 3.91217 30.645 3.67048 31.1952C3.4288 31.7453 3.30455 32.3398 3.30567 32.9407C3.30449 33.7361 3.52402 34.5161 3.93983 35.1941C4.35564 35.872 4.95143 36.4213 5.66087 36.7807C35.0241 51.4815 83.2577 34.1151 106.483 29.8207C121.914 26.9695 138.384 33.9807 148.083 39.3087C148.968 39.7934 149.964 40.0393 150.972 40.0221C151.981 40.005 152.968 39.7254 153.836 39.211C154.703 38.6965 155.422 37.9649 155.921 37.0882C156.42 36.2115 156.682 35.2199 156.682 34.2111C156.684 33.1625 156.402 32.1328 155.866 31.2313C155.331 30.3299 154.561 29.5903 153.638 29.0911C144.214 23.9999 114.422 9.41754 86.9889 12.4799Z" fill="#FAFAFA"/>
<path d="M131.606 110.87C132.979 110.125 134.639 110.064 136.025 109.344C137.226 108.711 138.128 107.63 138.537 106.336C138.628 106.11 138.673 105.869 138.669 105.626C138.665 105.383 138.612 105.144 138.515 104.921C137.999 104 136.649 104.281 135.593 104.259C134.696 104.225 133.836 103.897 133.146 103.324C132.455 102.751 131.974 101.966 131.775 101.091C131.659 100.64 131.701 100.162 131.894 99.7374C132.195 99.1678 132.854 98.8926 133.407 98.595C134.452 98.0393 135.376 97.2816 136.125 96.3659C136.874 95.4501 137.434 94.3946 137.772 93.2606C137.828 93.1258 137.857 92.9811 137.857 92.835C137.857 92.6889 137.828 92.5442 137.772 92.4094C137.564 92.0478 137.055 92.0158 136.639 92.0894C134.892 92.3358 133.321 93.347 131.571 93.5582C129.82 93.7694 127.644 92.5758 127.91 90.835C128.095 89.6158 129.331 88.915 130.326 88.1726C131.197 87.5326 131.964 86.7607 132.598 85.8846C132.964 85.4569 133.188 84.9255 133.238 84.3646C133.238 83.0846 131.711 82.3102 130.454 82.4894C129.196 82.6686 128.118 83.4494 126.956 83.9774C126.663 84.1377 126.33 84.212 125.996 84.1918C125.771 84.1426 125.559 84.0446 125.375 83.9048C125.192 83.7649 125.041 83.5865 124.934 83.3822C123.974 81.811 124.419 79.7438 125.254 78.0894C126.089 76.435 127.251 74.9278 127.711 73.139C127.987 72.0862 127.948 70.8382 127.183 70.0638C125.923 68.7838 123.599 69.7054 122.675 71.2414C121.75 72.7774 121.699 74.6686 121.228 76.3998C121.091 76.8958 120.867 77.4398 120.39 77.6286C119.913 77.8174 119.286 77.523 118.889 77.1326C117.769 76.0382 117.449 74.3614 117.452 72.7934C117.452 71.3374 117.747 69.8878 117.615 68.4318C117.602 68.0459 117.457 67.6763 117.203 67.3854C116.054 66.2142 112.985 67.2766 111.878 68.0254C110.844 68.7262 110.044 70.0606 110.438 71.3278C110.671 72.0702 111.257 72.6462 111.593 73.3502C111.929 74.0542 111.897 75.075 111.19 75.4014C110.852 75.5237 110.484 75.5394 110.137 75.4462C108.196 75.094 106.384 74.2302 104.889 72.9438C104.041 72.2078 103.289 71.3438 102.329 70.7486C100.675 69.7214 98.2905 70.051 98.0217 72.3006C97.9434 73.2114 98.2274 74.1163 98.8121 74.819C99.3969 75.5087 100.131 76.0559 100.959 76.419C101.786 76.7822 102.636 77.0911 103.503 77.3438C105.516 77.9838 107.516 78.7262 109.311 79.8398C109.647 80.051 110.022 80.3774 109.935 80.7646C109.849 81.1518 109.356 81.283 108.953 81.3214C105.186 81.6761 101.397 80.9314 98.0441 79.1774C95.8457 78.0222 93.6985 76.3998 91.2153 76.435C90.7662 76.4108 90.3202 76.5223 89.9353 76.755C89.2953 77.2094 89.1609 78.1406 89.4233 78.8734C89.7357 79.5923 90.2271 80.2191 90.8505 80.6942C92.5219 82.1458 94.4273 83.3035 96.4857 84.1182C98.9529 85.0782 104.361 86.5566 102.719 88.5246C101.078 90.4926 98.4729 89.5006 96.5785 88.5406C94.9785 87.7214 93.7465 86.3006 92.2489 85.283C90.7513 84.2654 88.6489 83.715 87.1833 84.7774C86.6796 85.1317 86.3349 85.6694 86.2233 86.275C86.0505 87.3822 86.8633 88.4126 87.7305 89.1038C91.2665 91.8782 101.545 91.9134 99.8617 94.7422C98.1785 97.571 92.6521 95.043 89.7209 93.075C87.9481 91.8878 86.1561 90.1502 84.0569 90.515C83.7671 90.5483 83.4903 90.6535 83.2516 90.8212C83.0129 90.9889 82.82 91.2137 82.6905 91.475C82.3705 92.291 83.0105 93.155 83.6505 93.7438C85.1194 95.0691 86.8588 96.0594 88.7481 96.6462C89.9129 97.0078 91.1385 97.2158 92.2201 97.7758C93.3017 98.3358 94.2585 99.3566 94.2937 100.576C94.3132 100.827 94.2729 101.08 94.1761 101.313C94.0794 101.546 93.9289 101.753 93.7369 101.917C93.1673 102.345 92.3609 102.173 91.6857 101.936C89.6836 101.24 87.8312 100.172 86.2265 98.787C85.4553 98.1214 84.3737 97.3406 83.5353 97.923C82.9689 98.3134 82.8953 99.1742 83.2153 99.7918C83.5353 100.409 84.0985 100.841 84.6553 101.248L90.1689 105.309C91.0521 105.949 92.0249 106.784 91.9929 107.869C91.9609 109.03 90.7129 109.862 89.5417 109.824C88.3705 109.785 87.3369 109.113 86.4249 108.393C85.4238 107.605 84.4962 106.728 83.6537 105.773C83.3113 105.385 82.8953 104.95 82.3737 104.998C81.5929 105.075 81.3913 106.137 81.5545 106.918C82.3545 110.669 86.3833 112.723 88.4793 115.936C89.8777 118.083 90.5689 120.928 92.8345 122.118L134.495 122.355C135.225 121.801 135.993 121.904 136.23 121.395C136.288 121.28 136.322 121.154 136.329 121.025C136.336 120.897 136.316 120.768 136.27 120.647C136.224 120.527 136.154 120.417 136.063 120.326C135.972 120.234 135.863 120.162 135.743 120.115C135.363 119.926 134.911 119.961 134.502 119.856C134.092 119.75 133.673 119.373 133.798 118.966C133.89 118.752 134.059 118.581 134.271 118.486C135.113 118.016 136.092 117.827 136.921 117.334C137.75 116.841 139.11 116.173 138.118 114.947C137.126 113.721 134.684 115.145 132.969 115.245C132.079 115.299 131.081 115.312 130.428 114.707C129.302 113.645 130.239 111.616 131.606 110.87Z" fill="#F0F0F0"/>
<path d="M25.1809 113.997C24.2593 113.453 23.0561 113.411 22.1249 112.883C21.7259 112.655 21.3834 112.34 21.123 111.961C20.8627 111.582 20.691 111.149 20.6209 110.695C20.5404 110.343 20.6013 109.974 20.7905 109.667C21.2641 108.995 22.2177 109.194 22.9889 109.184C23.6753 109.14 24.3346 108.9 24.8879 108.491C25.4412 108.083 25.8651 107.523 26.1089 106.88C26.2416 106.568 26.2619 106.22 26.1665 105.895C26.0097 105.479 25.5713 105.28 25.1873 105.063C24.4867 104.656 23.8882 104.094 23.4374 103.421C22.9865 102.748 22.6953 101.981 22.5857 101.178C22.5333 100.968 22.5655 100.746 22.6753 100.56C22.784 100.446 22.9211 100.364 23.0723 100.32C23.2236 100.277 23.3837 100.275 23.5361 100.314C24.7809 100.493 25.8177 101.229 27.0561 101.383C28.2945 101.536 30.0193 100.669 30.0129 99.4018C30.0129 98.5122 29.1873 97.9938 28.5409 97.4626C27.9766 96.9958 27.4999 96.4324 27.1329 95.7986C26.9134 95.4729 26.8087 95.0833 26.8353 94.6914C26.9633 93.7634 28.1697 93.1938 29.0753 93.325C29.9809 93.4562 30.6753 94.0322 31.4593 94.4098C31.6648 94.5256 31.8991 94.58 32.1345 94.5666C32.4862 94.4857 32.794 94.2741 32.9953 93.9746C33.8721 92.8322 33.7633 91.325 33.3377 90.1346C32.9121 88.9442 32.2273 87.8338 32.0801 86.5314C31.9969 85.7634 32.1569 84.8546 32.7969 84.2914C33.8529 83.3602 35.4465 84.029 35.9521 85.149C36.4577 86.269 36.2945 87.645 36.4545 88.9026C36.4993 89.2674 36.6017 89.661 36.9313 89.7986C37.2609 89.9362 37.7441 89.7218 38.0769 89.4402C39.0081 88.6402 39.4241 87.421 39.5905 86.2786C39.7441 85.2194 39.6865 84.1634 39.9393 83.101C39.9971 82.8123 40.141 82.5478 40.3521 82.3426C41.3121 81.4882 43.4337 82.2626 44.1601 82.8098C44.5319 83.0717 44.8032 83.4526 44.9294 83.8894C45.0557 84.3263 45.0293 84.7931 44.8545 85.213C44.6049 85.7538 44.1153 86.173 43.7953 86.685C43.4753 87.197 43.3889 87.9426 43.8689 88.1794C44.1133 88.269 44.3795 88.2802 44.6305 88.2114C46.119 87.9378 47.5209 87.3136 48.7201 86.3906C49.4177 85.8562 50.0513 85.2226 50.8097 84.7906C52.1249 84.0418 53.8273 84.2818 53.7793 85.9202C53.7243 86.6123 53.4248 87.2622 52.9345 87.7538C52.4395 88.2565 51.8487 88.6548 51.1969 88.925C50.5602 89.1886 49.9084 89.414 49.2449 89.6002C47.6827 90.0381 46.1738 90.6477 44.7457 91.4178C44.4801 91.5714 44.1729 91.8082 44.1953 92.0898C44.2177 92.3714 44.5601 92.4674 44.8353 92.4962C47.6513 92.735 50.4786 92.1948 53.0081 90.9346C54.7361 90.0962 56.4705 88.9122 58.2753 88.9378C58.5914 88.9203 58.9046 89.0056 59.1681 89.181C59.5809 89.501 59.5809 90.189 59.3121 90.7234C59.0027 91.2504 58.581 91.7027 58.0769 92.0482C56.7166 93.0984 55.2065 93.9387 53.5969 94.541C51.6961 95.2514 47.6001 96.317 48.5825 97.741C49.5649 99.165 51.5681 98.4514 53.0625 97.741C54.3265 97.1458 55.3665 96.109 56.5665 95.3698C57.7665 94.6306 59.3569 94.2274 60.3073 95.0018C60.4721 95.1328 60.6059 95.2985 60.6994 95.4871C60.7928 95.6757 60.8436 95.8826 60.8481 96.093C60.8481 96.8994 60.1633 97.6482 59.4465 98.1538C56.5665 100.173 49.0849 100.199 50.0097 102.256C50.9345 104.314 55.2225 102.477 57.5713 101.043C58.9889 100.179 60.4833 98.9154 61.9681 99.1874C62.1677 99.2058 62.3579 99.281 62.5161 99.404C62.6743 99.5271 62.794 99.6929 62.8609 99.8818C63.0081 100.474 62.4481 101.104 61.9009 101.533C60.7073 102.489 59.3405 103.206 57.8753 103.645C56.9889 103.911 56.0769 104.061 55.2289 104.467C54.3809 104.874 53.5745 105.619 53.4177 106.506C53.3767 106.675 53.379 106.851 53.4243 107.019C53.4696 107.187 53.5565 107.34 53.6769 107.466C54.0449 107.786 54.6529 107.651 55.1681 107.482C56.7353 106.974 58.2064 106.207 59.5201 105.213C60.1601 104.727 61.0241 104.157 61.5745 104.573C61.9457 104.861 61.8945 105.485 61.6065 105.936C61.282 106.369 60.8726 106.73 60.4033 106.999L55.9521 109.952C55.2385 110.426 54.4417 111.027 54.3521 111.824C54.2625 112.621 55.0785 113.274 55.9265 113.245C56.7745 113.216 57.6097 112.73 58.3521 112.208C59.166 111.628 59.9341 110.986 60.6497 110.288C60.9409 110.007 61.2897 109.69 61.6577 109.725C62.2177 109.779 62.2497 110.554 62.0481 111.111C61.0625 113.843 57.9105 115.338 56.0353 117.68C54.7873 119.242 53.9777 121.312 52.1953 122.179L21.8369 122.352C21.3697 121.949 20.7969 122.032 20.6817 121.642C20.6314 121.453 20.6542 121.253 20.7456 121.081C20.8371 120.909 20.9903 120.778 21.1745 120.714C21.4779 120.62 21.7899 120.557 22.1057 120.525C22.4257 120.448 22.7457 120.173 22.7137 119.885C22.6931 119.809 22.656 119.738 22.6051 119.678C22.5543 119.618 22.4909 119.569 22.4193 119.536C21.8593 119.191 21.1649 119.053 20.6145 118.695C20.0641 118.336 19.1457 117.85 20.0001 116.957C20.8545 116.064 22.4801 117.104 23.7185 117.175C24.3585 117.213 25.0849 117.226 25.6385 116.784C26.5601 116.016 26.0993 114.541 25.1809 113.997Z" fill="#F0F0F0"/>
<path d="M110.08 73.0845C110.08 73.0845 111.68 72.7421 112.176 73.1805C112.7 72.5405 115.494 70.5246 116.976 71.6958C116.764 73.5645 113.376 74.1277 112.544 74.0381C112.486 74.6269 111.203 75.4749 111.203 75.4749C111.238 74.9652 111.334 74.4615 111.488 73.9741C110.956 73.7905 110.474 73.486 110.08 73.0845Z" fill="#E6E6E6"/>
<path d="M121.821 68.7646C122.237 67.891 124.982 64.7774 127.229 65.475C127.645 67.5102 123.642 69.315 122.576 69.539C122.714 70.179 121.43 71.5294 121.43 71.5294C121.29 70.9819 121.225 70.4177 121.238 69.8526C120.532 69.8531 119.832 69.7082 119.184 69.427C119.184 69.427 121.066 68.4798 121.821 68.7646Z" fill="#E6E6E6"/>
<path d="M125.312 61.6095C125.654 62.1375 124.928 64.0415 124.928 64.0415C124.61 63.5858 124.362 63.0854 124.192 62.5567C123.566 62.8995 122.875 63.1067 122.163 63.1647C122.163 63.1647 123.571 61.3567 124.361 61.2447C124.451 60.2175 125.926 55.9487 128.221 55.5039C129.28 57.2191 126.221 60.8895 125.312 61.6095Z" fill="#E6E6E6"/>
<path d="M115.767 60.9344C115.642 62.0448 113.629 62.3776 113.136 62.3264C113.101 62.6752 112.339 63.1776 112.339 63.1776C112.36 62.8754 112.417 62.5767 112.509 62.288C112.196 62.1779 111.912 61.9973 111.68 61.76C111.68 61.76 112.64 61.5552 112.925 61.8144C113.235 61.44 114.88 60.24 115.767 60.9344Z" fill="#E6E6E6"/>
<path d="M114.368 59.0909C114.368 59.4301 113.642 60.1405 113.642 60.1405C113.624 59.8436 113.644 59.5458 113.702 59.2541C113.373 59.2559 113.049 59.1768 112.758 59.0237C112.758 59.0237 113.741 58.5277 114.077 58.6813C114.355 58.2205 115.949 56.5821 116.957 56.9565C116.973 58.0317 114.896 58.9853 114.368 59.0909Z" fill="#E6E6E6"/>
<path d="M124.864 54.8609C124.641 54.619 124.454 54.3451 124.311 54.0481C123.971 54.3018 123.582 54.4806 123.168 54.5729C123.168 54.5729 123.847 53.3921 124.301 53.2673C124.269 52.6561 124.784 50.0257 126.096 49.5713C126.861 50.4897 125.364 52.8993 124.89 53.4113C125.136 53.6801 124.864 54.8609 124.864 54.8609Z" fill="#E6E6E6"/>
<path d="M125.478 71.3793C125.798 70.9761 127.532 69.7345 128.441 70.4609C128.313 71.6193 126.201 71.9681 125.699 71.9137C125.664 72.2785 124.867 72.8033 124.867 72.8033C124.889 72.4871 124.949 72.1747 125.043 71.8721C124.716 71.7573 124.421 71.569 124.179 71.3217C124.179 71.3217 125.177 71.1073 125.478 71.3793Z" fill="#E6E6E6"/>
<path d="M129.981 66.9919C130.272 66.5087 131.933 64.7999 132.989 65.1903C132.989 66.3135 130.835 67.3087 130.285 67.4303C130.285 67.7823 129.527 68.5247 129.527 68.5247C129.507 68.2151 129.528 67.9043 129.587 67.5999C129.245 67.6011 128.908 67.5187 128.605 67.3599C128.605 67.3599 129.632 66.8319 129.981 66.9919Z" fill="#E6E6E6"/>
<path d="M132.636 69.6094C132.854 69.0494 134.409 67.0046 135.836 67.331C136.185 68.5726 133.795 69.891 133.145 70.0542C133.26 70.4414 132.528 71.3342 132.528 71.3342C132.416 71.0023 132.352 70.6566 132.336 70.307C131.902 70.3397 131.466 70.2819 131.056 70.1374C131.056 70.1374 132.16 69.4686 132.636 69.6094Z" fill="#E6E6E6"/>
<path d="M133.622 62.56C133.779 62.2944 134.688 61.4176 135.286 61.7664C135.309 62.4576 134.106 62.8416 133.798 62.8544C133.798 63.072 133.386 63.4464 133.386 63.4464C133.372 63.2594 133.38 63.0713 133.411 62.8864C133.209 62.8476 133.018 62.7622 132.854 62.6368C132.854 62.6368 133.44 62.4256 133.622 62.56Z" fill="#E6E6E6"/>
<path d="M113.808 69.5007C113.78 69.0001 113.815 68.498 113.913 68.0063C113.356 68.0107 112.807 67.8778 112.313 67.6191C112.313 67.6191 113.971 66.7839 114.537 67.0399C115.005 66.2623 117.686 63.5039 119.389 64.1343C119.411 65.9487 115.913 67.5519 115.024 67.7311C115.049 68.3007 113.808 69.5007 113.808 69.5007Z" fill="#E6E6E6"/>
<path d="M120.365 60.0094C120.477 60.3806 119.773 61.2382 119.773 61.2382C119.667 60.9206 119.604 60.5902 119.587 60.2558C119.169 60.2864 118.748 60.2308 118.352 60.0926C118.352 60.0926 119.424 59.4526 119.885 59.587C120.093 59.0494 121.584 57.0878 122.944 57.4014C123.277 58.5886 120.986 59.8398 120.365 60.0094Z" fill="#E6E6E6"/>
<path d="M134.893 65.555C134.893 65.555 135.91 64.563 136.403 64.5662C136.547 63.9454 137.814 61.4526 139.261 61.3662C139.766 62.5054 137.574 64.4958 136.957 64.8606C137.123 65.2158 136.515 66.3198 136.515 66.3198C136.363 66.0169 136.255 65.6936 136.195 65.3598C135.78 65.5162 135.336 65.5828 134.893 65.555Z" fill="#E6E6E6"/>
<path d="M130.195 60.7393C130.247 60.9697 129.84 61.5585 129.84 61.5585C129.788 61.3578 129.761 61.1514 129.76 60.9441C129.536 60.9901 129.304 60.9802 129.085 60.9153C129.085 60.9153 129.69 60.4417 129.939 60.4993C130.067 60.1473 130.931 58.8065 131.674 58.9249C131.84 59.6609 130.541 60.5953 130.195 60.7393Z" fill="#E6E6E6"/>
<path d="M130.752 50.5376C130.626 50.398 130.519 50.2432 130.432 50.0768C130.271 50.202 130.082 50.2855 129.881 50.32C129.881 50.32 130.179 49.7056 130.403 49.6544C130.365 49.3344 130.534 47.9168 131.171 47.7344C131.584 48.2592 130.918 49.5072 130.697 49.76C130.848 49.92 130.752 50.5376 130.752 50.5376Z" fill="#E6E6E6"/>
<path d="M135.561 58.4992C135.66 58.7168 135.308 59.3024 135.308 59.3024C135.214 59.1174 135.146 58.9204 135.107 58.7168C134.852 58.7697 134.59 58.7697 134.335 58.7168C134.335 58.7168 134.934 58.2272 135.228 58.2688C135.308 57.92 136.044 56.5856 136.908 56.6688C137.219 57.3664 135.926 58.3392 135.561 58.4992Z" fill="#E6E6E6"/>
<path d="M133.033 54.5982C133.193 54.8382 132.87 55.7054 132.87 55.7054C132.723 55.5007 132.608 55.2753 132.528 55.0366C132.245 55.1933 131.932 55.2892 131.609 55.3182C131.609 55.3182 132.249 54.4894 132.601 54.4414C132.64 53.9742 133.296 52.0286 134.336 51.8174C134.825 52.5918 133.44 54.2718 133.033 54.5982Z" fill="#E6E6E6"/>
<path d="M138.019 52.4318C138.019 52.4318 138.733 51.2542 139.277 51.2126C139.177 50.5182 139.558 47.6926 141.11 47.4526C142.128 48.6494 140.534 51.0302 140.003 51.4846C140.323 51.8558 140.109 53.1198 140.109 53.1198C139.818 52.8078 139.567 52.4618 139.36 52.0894C138.945 52.3049 138.486 52.4221 138.019 52.4318Z" fill="#E6E6E6"/>
<path d="M133.139 43.2001C133.107 42.3905 133.936 39.0401 135.869 38.6753C136.96 40.0225 134.701 42.9121 133.994 43.4753C134.343 43.8913 133.914 45.3953 133.914 45.3953C133.6 45.0432 133.335 44.6503 133.127 44.2273C132.604 44.5012 132.031 44.6646 131.443 44.7073C131.443 44.7073 132.48 43.2737 133.139 43.2001Z" fill="#E6E6E6"/>
<path d="M102.471 73.616C102.756 72.8576 104.829 70.096 106.746 70.5152C107.226 72.1792 104.02 73.9616 103.146 74.2048C103.306 74.7264 102.33 75.9392 102.33 75.9392C102.176 75.4932 102.084 75.028 102.058 74.5568C101.47 74.6059 100.879 74.5329 100.32 74.3424C100.32 74.3424 101.821 73.4272 102.471 73.616Z" fill="#E6E6E6"/>
<path d="M133.075 35.987C133.532 36.2462 133.731 37.9358 133.731 37.9358C133.321 37.7213 132.944 37.4474 132.614 37.123C132.279 37.6191 131.843 38.0389 131.334 38.355C131.334 38.355 131.676 36.4734 132.224 36.0894C131.904 35.299 131.334 31.571 132.864 30.355C134.32 31.2094 133.472 35.107 133.075 35.987Z" fill="#E6E6E6"/>
<path d="M125.638 39.7373C125.974 40.6077 124.614 41.6317 124.227 41.7821C124.339 42.0541 123.967 42.7197 123.967 42.7197C123.867 42.4878 123.794 42.2451 123.75 41.9965C123.475 42.0363 123.195 42.0122 122.931 41.9261C122.931 41.9261 123.571 41.4045 123.875 41.4877C123.955 41.0781 124.723 39.5613 125.638 39.7373Z" fill="#E6E6E6"/>
<path d="M123.891 38.9149C124.029 39.1613 123.757 39.9709 123.757 39.9709C123.63 39.7582 123.531 39.5302 123.463 39.2925C123.22 39.4203 122.949 39.4862 122.675 39.4845C122.675 39.4845 123.2 38.7389 123.52 38.7197C123.546 38.2717 124.09 36.4445 124.983 36.3325C125.408 37.1197 124.24 38.6301 123.891 38.9149Z" fill="#E6E6E6"/>
<path d="M130.023 31.7312C129.762 31.6405 129.518 31.511 129.296 31.3472C129.143 31.6649 128.925 31.9472 128.656 32.176C128.656 32.176 128.701 31.04 128.976 30.7712C128.717 30.3328 128.08 28.1888 128.877 27.3472C129.799 27.728 129.623 30.0896 129.463 30.6432C129.767 30.7552 130.023 31.7312 130.023 31.7312Z" fill="#E6E6E6"/>
<path d="M135.098 48.733C135.123 48.301 135.693 46.621 136.662 46.669C137.139 47.517 135.885 48.7746 135.507 48.989C135.661 49.2514 135.379 49.9938 135.379 49.9938C135.239 49.7699 135.125 49.5304 135.04 49.2802C134.763 49.3612 134.47 49.3777 134.186 49.3282C134.186 49.3282 134.765 48.6946 135.098 48.733Z" fill="#E6E6E6"/>
<path d="M139.817 43.5584C139.846 43.0912 140.416 41.1872 141.347 41.0688C141.792 41.8944 140.573 43.4656 140.208 43.76C140.352 44.016 140.07 44.864 140.07 44.864C139.934 44.6419 139.826 44.4032 139.75 44.1536C139.497 44.2876 139.214 44.3569 138.928 44.3552C138.928 44.3552 139.497 43.5776 139.817 43.5584Z" fill="#E6E6E6"/>
<path d="M139.872 37.4558C140.019 36.9758 141.184 35.1774 142.387 35.363C142.752 36.3742 140.845 37.603 140.314 37.795C140.435 38.115 139.878 38.899 139.878 38.899C139.766 38.6288 139.69 38.3446 139.654 38.0542C139.293 38.1081 138.925 38.0874 138.573 37.9934C138.573 37.9934 139.462 37.3662 139.872 37.4558Z" fill="#E6E6E6"/>
<path d="M139.11 32.352C139.11 32.096 139.459 31.0944 140.035 31.1232C140.32 31.6256 139.578 32.3744 139.354 32.5024C139.446 32.6592 139.28 33.1008 139.28 33.1008C139.197 32.9676 139.13 32.8246 139.082 32.6752C138.917 32.7245 138.743 32.7354 138.573 32.7072C138.573 32.7072 138.912 32.32 139.11 32.352Z" fill="#E6E6E6"/>
<path d="M127.498 46.829C127.282 46.47 127.113 46.085 126.995 45.6834C126.586 45.8969 126.132 46.0068 125.67 46.0034C125.67 46.0034 126.573 44.749 127.091 44.7234C127.139 43.965 128.051 40.8834 129.558 40.6978C130.275 42.0322 128.307 44.5666 127.718 45.0466C127.952 45.4626 127.498 46.829 127.498 46.829Z" fill="#E6E6E6"/>
<path d="M100.019 70.8543C99.8032 70.4954 99.6343 70.1104 99.5162 69.7087C99.1075 69.9223 98.6525 70.0322 98.1914 70.0287C98.1914 70.0287 99.0938 68.7743 99.6122 68.7487C99.6602 67.9935 100.572 64.9087 102.079 64.7231C102.796 66.0575 100.828 68.5951 100.239 69.0719C100.479 69.4879 100.019 70.8543 100.019 70.8543Z" fill="#E6E6E6"/>
<path d="M128.681 37.2798C128.905 37.5102 128.716 38.4158 128.716 38.4158C128.516 38.2273 128.342 38.0119 128.201 37.7758C127.903 37.9597 127.571 38.0806 127.225 38.131C127.225 38.131 127.769 37.2446 128.163 37.171C128.108 36.6942 128.454 34.6686 129.584 34.3774C130.288 35.1038 129.075 36.915 128.681 37.2798Z" fill="#E6E6E6"/>
<path d="M142.191 32.7424C142.191 32.7424 142.559 31.6192 142.927 31.4304C142.79 30.9152 142.767 28.5824 143.804 27.9648C144.62 28.6048 143.769 30.9312 143.452 31.4368C143.711 31.6352 143.689 32.688 143.689 32.688C143.455 32.5221 143.247 32.3226 143.071 32.096C142.827 32.3708 142.527 32.5911 142.191 32.7424Z" fill="#E6E6E6"/>
<path d="M136.234 34.0257C136.359 34.1729 136.288 34.7649 136.288 34.7649C136.171 34.6377 136.071 34.4957 135.991 34.3425C135.842 34.4626 135.666 34.5449 135.479 34.5825C135.479 34.5825 135.744 33.9969 135.952 33.9425C135.907 33.6225 136.032 32.3073 136.624 32.1089C137.024 32.5921 136.432 33.7825 136.234 34.0257Z" fill="#E6E6E6"/>
<path d="M132.541 23.843C132.398 23.7864 132.262 23.7122 132.138 23.6222C132.07 23.7697 131.968 23.8991 131.84 23.9998C131.84 23.9998 131.824 23.4302 131.968 23.3054C131.814 23.075 131.395 21.971 131.792 21.5806C132.298 21.811 132.288 22.9918 132.224 23.2606C132.368 23.3598 132.541 23.843 132.541 23.843Z" fill="#E6E6E6"/>
<path d="M139.501 26.1151C139.661 26.2367 139.625 26.8095 139.625 26.8095C139.484 26.7082 139.358 26.5876 139.251 26.4511C139.086 26.5954 138.893 26.7043 138.685 26.7711C138.685 26.7711 138.937 26.1791 139.171 26.0959C139.097 25.8079 139.126 24.5343 139.792 24.2559C140.291 24.6399 139.709 25.8559 139.501 26.1151Z" fill="#E6E6E6"/>
<path d="M134.966 28.0864C135.177 28.2016 135.286 28.9696 135.286 28.9696C135.098 28.8733 134.925 28.7492 134.774 28.6016C134.625 28.8287 134.43 29.0218 134.201 29.168C134.201 29.168 134.352 28.3104 134.598 28.1344C134.444 27.776 134.179 26.0832 134.867 25.5264C135.516 25.92 135.142 27.6832 134.966 28.0864Z" fill="#E6E6E6"/>
<path d="M97.0396 62.0001C97.0396 62.0001 98.5595 61.3601 99.1163 61.6801C99.5067 60.9377 101.859 58.4321 103.529 59.2993C103.686 61.1713 100.47 62.3809 99.6347 62.4545C99.6923 63.0401 98.5979 64.1217 98.5979 64.1217C98.5382 63.6147 98.5382 63.1023 98.5979 62.5953C98.0398 62.5188 97.5066 62.3152 97.0396 62.0001Z" fill="#E6E6E6"/>
<path d="M107.735 56.9888C107.972 56.048 110.064 52.464 112.404 52.7136C113.204 54.6336 109.626 57.1936 108.621 57.6C108.884 58.1984 107.882 59.776 107.882 59.776C107.64 59.2686 107.468 58.7302 107.373 58.176C106.68 58.3147 105.965 58.3081 105.274 58.1568C105.274 58.1568 106.935 56.8544 107.735 56.9888Z" fill="#E6E6E6"/>
<path d="M109.76 47.7918C110.199 48.2462 109.856 50.2526 109.856 50.2526C109.456 49.8677 109.115 49.4256 108.845 48.9406C108.297 49.3975 107.659 49.7344 106.973 49.9294C106.973 49.9294 108.004 47.8782 108.759 47.6254C108.647 46.6014 109.271 42.1278 111.437 41.2446C112.823 42.7166 110.525 46.9118 109.76 47.7918Z" fill="#E6E6E6"/>
<path d="M100.279 48.9757C100.371 50.0893 98.4609 50.8061 97.9649 50.8509C98.0001 51.1997 97.3505 51.8397 97.3505 51.8397C97.3146 51.5378 97.3146 51.2327 97.3505 50.9309C97.0213 50.8841 96.7072 50.7626 96.4321 50.5757C96.4321 50.5757 97.3345 50.1885 97.6673 50.3901C97.8913 49.9485 99.2865 48.4637 100.279 48.9757Z" fill="#E6E6E6"/>
<path d="M98.5596 47.44C98.6332 47.76 98.0476 48.608 98.0476 48.608C97.9728 48.3206 97.9352 48.0249 97.9356 47.728C97.6167 47.7915 97.2871 47.7761 96.9756 47.6832C96.9756 47.6832 97.846 47.008 98.2044 47.0912C98.3868 46.5856 99.6348 44.672 100.697 44.8512C100.899 45.8976 99.046 47.232 98.5596 47.44Z" fill="#E6E6E6"/>
<path d="M108.032 41.2578C107.764 41.0634 107.527 40.8305 107.328 40.5666C107.044 40.8811 106.697 41.1319 106.31 41.3026C106.31 41.3026 106.745 40.0226 107.168 39.8018C107.017 39.2098 107.014 36.5282 108.214 35.8306C109.145 36.5826 108.14 39.2386 107.772 39.8178C108.067 40.0482 108.032 41.2578 108.032 41.2578Z" fill="#E6E6E6"/>
<path d="M106.56 64.7647C106.8 64.3039 108.259 62.7519 109.293 63.2895C109.389 64.4511 107.399 65.2095 106.88 65.2447C106.915 65.6095 106.24 66.2783 106.24 66.2783C106.202 65.9595 106.202 65.6371 106.24 65.3183C105.896 65.2685 105.567 65.1405 105.28 64.9439C105.28 64.9439 106.215 64.5567 106.56 64.7647Z" fill="#E6E6E6"/>
<path d="M115.395 52.16C115.587 51.632 116.886 49.6352 117.996 49.8112C118.227 50.912 116.294 52.3072 115.776 52.5216C115.852 52.864 115.241 53.744 115.241 53.744C115.165 53.4428 115.126 53.1332 115.126 52.8224C114.79 52.8914 114.443 52.876 114.115 52.7776C114.115 52.7776 115.02 52.0832 115.395 52.16Z" fill="#E6E6E6"/>
<path d="M118.508 54.2271C118.611 53.6351 119.74 51.3279 121.2 51.3727C121.779 52.5215 119.686 54.2527 119.084 54.5727C119.27 54.9311 118.726 55.9519 118.726 55.9519C118.553 55.6514 118.423 55.3283 118.339 54.9919C117.916 55.1084 117.474 55.1367 117.04 55.0751C117.04 55.0751 118.009 54.1791 118.508 54.2271Z" fill="#E6E6E6"/>
<path d="M118.112 47.1166C118.214 46.8286 118.934 45.7918 119.59 46.0158C119.747 46.691 118.63 47.2958 118.339 47.3726C118.393 47.5838 118.051 48.035 118.051 48.035C118.002 47.8532 117.973 47.6664 117.965 47.4782C117.76 47.4784 117.557 47.4324 117.373 47.3438C117.373 47.3438 117.891 47.0398 118.112 47.1166Z" fill="#E6E6E6"/>
<path d="M100.012 57.7601C99.8871 57.2741 99.8247 56.774 99.8266 56.2721C99.2839 56.3818 98.7227 56.3577 98.1914 56.2017C98.1914 56.2017 99.657 55.0593 100.262 55.2033C100.582 54.3489 102.668 51.1233 104.46 51.4145C104.835 53.1905 101.711 55.4369 100.873 55.7889C100.998 56.3425 100.012 57.7601 100.012 57.7601Z" fill="#E6E6E6"/>
<path d="M104.611 47.181C104.79 47.5234 104.269 48.4994 104.269 48.4994C104.102 48.209 103.977 47.8966 103.898 47.5714C103.492 47.6819 103.069 47.708 102.653 47.6482C102.653 47.6482 103.581 46.813 104.058 46.8578C104.16 46.2914 105.242 44.077 106.637 44.1218C107.2 45.2226 105.187 46.893 104.611 47.181Z" fill="#E6E6E6"/>
<path d="M119.936 49.811C119.936 49.811 120.742 48.643 121.216 48.5502C121.235 47.9102 121.997 45.219 123.402 44.8638C124.118 45.8814 122.352 48.2622 121.818 48.7358C122.048 49.0558 121.664 50.2558 121.664 50.2558C121.451 49.9854 121.281 49.6844 121.158 49.363C120.786 49.5945 120.37 49.747 119.936 49.811Z" fill="#E6E6E6"/>
<path d="M114.397 45.9969C114.493 46.2113 114.208 46.8673 114.208 46.8673C114.118 46.68 114.051 46.4822 114.01 46.2785C113.798 46.3666 113.569 46.4018 113.341 46.3809C113.341 46.3809 113.843 45.7985 114.099 45.8081C114.157 45.4369 114.739 43.9585 115.494 43.9297C115.792 44.6177 114.707 45.7857 114.397 45.9969Z" fill="#E6E6E6"/>
<path d="M112.96 35.8783C112.815 35.7634 112.685 35.6312 112.573 35.4847C112.439 35.6375 112.27 35.7551 112.08 35.8271C112.08 35.8271 112.253 35.1679 112.464 35.0751C112.362 34.7551 112.256 33.3471 112.845 33.0303C113.347 33.4655 112.938 34.8191 112.771 35.1103C112.941 35.2415 112.96 35.8783 112.96 35.8783Z" fill="#E6E6E6"/>
<path d="M119.229 42.7584C119.37 42.9504 119.136 43.5968 119.136 43.5968C119.005 43.4333 118.897 43.2524 118.816 43.0592C118.578 43.1642 118.321 43.2197 118.061 43.2224C118.061 43.2224 118.554 42.624 118.851 42.608C118.851 42.2528 119.328 40.8 120.186 40.688C120.64 41.328 119.555 42.5312 119.229 42.7584Z" fill="#E6E6E6"/>
<path d="M115.997 39.4209C116.198 39.6257 116.048 40.5409 116.048 40.5409C115.865 40.3665 115.708 40.1659 115.584 39.9457C115.336 40.1558 115.047 40.3117 114.736 40.4033C114.736 40.4033 115.197 39.4689 115.539 39.3505C115.485 38.8833 115.753 36.8481 116.736 36.4385C117.363 37.1201 116.336 39.0209 115.997 39.4209Z" fill="#E6E6E6"/>
<path d="M79.9999 136.819C114.266 136.819 142.045 135.197 142.045 133.197C142.045 131.196 114.266 129.574 79.9999 129.574C45.7335 129.574 17.9551 131.196 17.9551 133.197C17.9551 135.197 45.7335 136.819 79.9999 136.819Z" fill="#F5F5F5"/>
<path d="M135.904 115.379C135.084 116.416 134.044 117.27 133.462 118.474C132.844 119.754 132.822 121.235 132.342 122.57C131.616 124.554 129.878 126.003 128.019 126.643C126.16 127.283 124.198 127.203 122.329 126.87C121.03 126.64 119.34 126.477 118.809 128.032C118.738 128.245 118.695 128.467 118.681 128.691C118.681 128.803 118.681 128.918 118.665 129.03C118.62 130.63 117.385 131.936 115.936 131.936H111.257C110.797 131.931 110.349 131.793 109.965 131.538C109.582 131.284 109.28 130.924 109.097 130.502C108.552 129.3 108.306 127.983 108.381 126.664C108.456 125.346 108.849 124.065 109.526 122.931C110.028 122.134 110.668 121.434 111.094 120.589C111.91 118.97 111.836 117.03 111.43 115.315C110.508 111.437 108.032 108.173 107.59 104.163C107.452 102.944 107.536 101.603 108.198 100.56C108.766 99.7218 109.606 99.1056 110.576 98.816C112.054 98.3392 113.846 98.608 114.624 99.9808C115.526 101.581 114.694 103.728 114.7 105.654C114.689 107.156 115.263 108.604 116.3 109.69C116.883 110.269 117.705 110.701 118.489 110.413C118.976 110.184 119.39 109.824 119.683 109.373C120.813 107.841 121.498 106.025 121.66 104.128C121.804 102.41 121.507 100.717 121.44 99.008C121.306 95.0024 122.395 91.0511 124.563 87.68C126.65 84.4078 129.756 81.9128 133.401 80.5792C134.697 80.1248 136.259 79.9104 137.193 80.8992C137.692 81.424 137.907 82.1792 138.035 82.9504C138.707 86.9984 137.248 91.2992 135.094 94.8736C132.94 98.448 130.121 101.488 127.619 104.794C126.697 106.003 125.792 107.322 125.545 108.842C125.321 110.208 125.654 111.635 125.2 112.947C124.88 113.859 124.22 114.586 123.667 115.363C122.458 117.08 121.729 119.088 121.555 121.181C121.491 121.635 121.537 122.098 121.689 122.531C122.198 123.69 123.74 123.552 124.928 123.242C126.259 122.89 127.689 122.458 128.601 121.306C129.753 119.856 129.724 117.754 129.724 116.006C129.724 113.92 129.305 111.821 129.785 109.731C130.121 108.269 131.001 107.491 132.096 106.682C133.532 105.603 135.51 104.614 136.784 105.747C137.266 106.252 137.585 106.891 137.699 107.581C137.981 108.933 137.967 110.331 137.657 111.677C137.348 113.024 136.749 114.287 135.904 115.379Z" fill="#007FFF"/>
<path opacity="0.6" d="M135.904 115.379C135.084 116.416 134.044 117.27 133.462 118.474C132.844 119.754 132.822 121.235 132.342 122.57C131.616 124.554 129.878 126.003 128.019 126.643C126.16 127.283 124.198 127.203 122.329 126.87C121.03 126.64 119.34 126.477 118.809 128.032C118.738 128.245 118.695 128.467 118.681 128.691C118.681 128.803 118.681 128.918 118.665 129.03C118.62 130.63 117.385 131.936 115.936 131.936H111.257C110.797 131.931 110.349 131.793 109.965 131.538C109.582 131.284 109.28 130.924 109.097 130.502C108.552 129.3 108.306 127.983 108.381 126.664C108.456 125.346 108.849 124.065 109.526 122.931C110.028 122.134 110.668 121.434 111.094 120.589C111.91 118.97 111.836 117.03 111.43 115.315C110.508 111.437 108.032 108.173 107.59 104.163C107.452 102.944 107.536 101.603 108.198 100.56C108.766 99.7218 109.606 99.1056 110.576 98.816C112.054 98.3392 113.846 98.608 114.624 99.9808C115.526 101.581 114.694 103.728 114.7 105.654C114.689 107.156 115.263 108.604 116.3 109.69C116.883 110.269 117.705 110.701 118.489 110.413C118.976 110.184 119.39 109.824 119.683 109.373C120.813 107.841 121.498 106.025 121.66 104.128C121.804 102.41 121.507 100.717 121.44 99.008C121.306 95.0024 122.395 91.0511 124.563 87.68C126.65 84.4078 129.756 81.9128 133.401 80.5792C134.697 80.1248 136.259 79.9104 137.193 80.8992C137.692 81.424 137.907 82.1792 138.035 82.9504C138.707 86.9984 137.248 91.2992 135.094 94.8736C132.94 98.448 130.121 101.488 127.619 104.794C126.697 106.003 125.792 107.322 125.545 108.842C125.321 110.208 125.654 111.635 125.2 112.947C124.88 113.859 124.22 114.586 123.667 115.363C122.458 117.08 121.729 119.088 121.555 121.181C121.491 121.635 121.537 122.098 121.689 122.531C122.198 123.69 123.74 123.552 124.928 123.242C126.259 122.89 127.689 122.458 128.601 121.306C129.753 119.856 129.724 117.754 129.724 116.006C129.724 113.92 129.305 111.821 129.785 109.731C130.121 108.269 131.001 107.491 132.096 106.682C133.532 105.603 135.51 104.614 136.784 105.747C137.266 106.252 137.585 106.891 137.699 107.581C137.981 108.933 137.967 110.331 137.657 111.677C137.348 113.024 136.749 114.287 135.904 115.379Z" fill="white"/>
<path d="M57.7664 125.145C57.6704 125.571 57.4464 125.923 57.4848 126.425C57.5232 126.928 57.8048 127.558 57.9104 128.105C57.9921 128.431 57.9588 128.776 57.8159 129.08C57.6731 129.385 57.4295 129.63 57.1264 129.776C56.5568 130.038 55.8016 130.003 55.0304 129.869C54.4928 129.773 53.824 129.705 53.9392 130.345C53.9582 130.438 53.9872 130.528 54.0256 130.614C54.048 130.662 54.0672 130.707 54.0896 130.752C54.4096 131.392 54.2112 131.945 53.664 131.945H51.9104C51.4771 131.903 51.078 131.692 50.8 131.357C49.9232 130.416 49.328 129.177 49.3952 128.253C49.4519 127.935 49.4872 127.615 49.5008 127.293C49.4752 126.627 49.0464 125.833 48.5408 125.129C47.392 123.529 45.7856 122.201 44.7872 120.557C44.4799 120.122 44.3014 119.61 44.272 119.078C44.2838 118.921 44.3404 118.77 44.435 118.643C44.5297 118.517 44.6586 118.42 44.8064 118.365C45.1156 118.267 45.4462 118.26 45.7592 118.345C46.0722 118.429 46.3545 118.602 46.5728 118.841C47.2416 119.481 47.3728 120.377 47.7728 121.168C48.1167 121.824 48.6099 122.391 49.2128 122.822C49.552 123.059 49.952 123.238 50.1888 123.12C50.2567 123.07 50.3128 123.007 50.3532 122.933C50.3936 122.86 50.4172 122.778 50.4224 122.694C50.5148 121.96 50.3972 121.214 50.0832 120.544C49.7824 119.837 49.3184 119.142 48.9408 118.441C48.0672 116.825 47.6448 115.155 47.7696 113.792C47.8944 112.429 48.56 111.382 49.6288 110.88C49.8646 110.757 50.1304 110.705 50.3951 110.728C50.6597 110.751 50.9123 110.849 51.1232 111.011C51.4175 111.245 51.6678 111.53 51.8624 111.853C52.8219 113.296 53.2971 115.007 53.2192 116.739C53.1488 118.205 52.7168 119.453 52.4544 120.806C52.315 121.353 52.335 121.928 52.512 122.464C52.7104 123.024 53.1296 123.609 53.2288 124.147C53.2644 124.48 53.2383 124.816 53.152 125.139C53.0698 125.956 53.2102 126.78 53.5584 127.523C53.6343 127.724 53.7424 127.911 53.8784 128.077C54.0483 128.259 54.2703 128.385 54.5141 128.437C54.7579 128.489 55.0119 128.465 55.2416 128.368C55.6704 128.224 56.1184 128.048 56.2272 127.574C56.3584 126.982 55.9072 126.118 55.5552 125.405C55.1232 124.547 54.5312 123.686 54.2752 122.829C54.2001 122.618 54.1827 122.391 54.2249 122.172C54.2671 121.952 54.3674 121.748 54.5152 121.581C54.8352 121.136 55.3728 120.733 56.0864 121.197C56.3712 121.401 56.6163 121.656 56.8096 121.949C57.6 123.021 57.9616 124.265 57.7664 125.145Z" fill="#007FFF"/>
<path opacity="0.8" d="M57.7664 125.145C57.6704 125.571 57.4464 125.923 57.4848 126.425C57.5232 126.928 57.8048 127.558 57.9104 128.105C57.9921 128.431 57.9588 128.776 57.8159 129.08C57.6731 129.385 57.4295 129.63 57.1264 129.776C56.5568 130.038 55.8016 130.003 55.0304 129.869C54.4928 129.773 53.824 129.705 53.9392 130.345C53.9582 130.438 53.9872 130.528 54.0256 130.614C54.048 130.662 54.0672 130.707 54.0896 130.752C54.4096 131.392 54.2112 131.945 53.664 131.945H51.9104C51.4771 131.903 51.078 131.692 50.8 131.357C49.9232 130.416 49.328 129.177 49.3952 128.253C49.4519 127.935 49.4872 127.615 49.5008 127.293C49.4752 126.627 49.0464 125.833 48.5408 125.129C47.392 123.529 45.7856 122.201 44.7872 120.557C44.4799 120.122 44.3014 119.61 44.272 119.078C44.2838 118.921 44.3404 118.77 44.435 118.643C44.5297 118.517 44.6586 118.42 44.8064 118.365C45.1156 118.267 45.4462 118.26 45.7592 118.345C46.0722 118.429 46.3545 118.602 46.5728 118.841C47.2416 119.481 47.3728 120.377 47.7728 121.168C48.1167 121.824 48.6099 122.391 49.2128 122.822C49.552 123.059 49.952 123.238 50.1888 123.12C50.2567 123.07 50.3128 123.007 50.3532 122.933C50.3936 122.86 50.4172 122.778 50.4224 122.694C50.5148 121.96 50.3972 121.214 50.0832 120.544C49.7824 119.837 49.3184 119.142 48.9408 118.441C48.0672 116.825 47.6448 115.155 47.7696 113.792C47.8944 112.429 48.56 111.382 49.6288 110.88C49.8646 110.757 50.1304 110.705 50.3951 110.728C50.6597 110.751 50.9123 110.849 51.1232 111.011C51.4175 111.245 51.6678 111.53 51.8624 111.853C52.8219 113.296 53.2971 115.007 53.2192 116.739C53.1488 118.205 52.7168 119.453 52.4544 120.806C52.315 121.353 52.335 121.928 52.512 122.464C52.7104 123.024 53.1296 123.609 53.2288 124.147C53.2644 124.48 53.2383 124.816 53.152 125.139C53.0698 125.956 53.2102 126.78 53.5584 127.523C53.6343 127.724 53.7424 127.911 53.8784 128.077C54.0483 128.259 54.2703 128.385 54.5141 128.437C54.7579 128.489 55.0119 128.465 55.2416 128.368C55.6704 128.224 56.1184 128.048 56.2272 127.574C56.3584 126.982 55.9072 126.118 55.5552 125.405C55.1232 124.547 54.5312 123.686 54.2752 122.829C54.2001 122.618 54.1827 122.391 54.2249 122.172C54.2671 121.952 54.3674 121.748 54.5152 121.581C54.8352 121.136 55.3728 120.733 56.0864 121.197C56.3712 121.401 56.6163 121.656 56.8096 121.949C57.6 123.021 57.9616 124.265 57.7664 125.145Z" fill="white"/>
<path d="M84.1119 117.472C84.3711 119.514 85.9967 121.059 87.3759 122.592C88.7551 124.125 90.0383 126.15 89.4175 128.115C89.2305 128.637 88.9766 129.133 88.6623 129.59C88.5151 129.821 88.4323 130.086 88.4228 130.359C88.4132 130.633 88.4771 130.903 88.6079 131.143C88.7387 131.383 88.9315 131.584 89.1663 131.724C89.401 131.864 89.669 131.938 89.9423 131.939H93.9231C94.2385 131.94 94.5464 131.842 94.8042 131.661C95.0621 131.479 95.2573 131.222 95.3631 130.925C95.9135 129.363 95.5519 127.405 94.8511 125.824C93.8911 123.69 92.4575 121.702 92.2303 119.379C91.9103 116.134 94.0735 113.155 96.5279 111.008C98.9823 108.861 101.869 107.149 103.85 104.56C105.53 102.371 106.451 99.6928 108.01 97.4208C109.44 95.344 111.373 93.6512 112.762 91.5488C115.846 86.8672 115.699 80.2784 112.41 75.7408C111.789 74.8832 110.707 74.0224 109.782 74.5376C109.425 74.7656 109.165 75.1179 109.053 75.5264C108.413 77.472 109.894 79.392 110.598 81.312C111.632 84.1376 110.944 87.392 109.341 89.952C107.738 92.512 105.312 94.432 102.762 96.032C99.8015 97.8816 96.3359 99.6704 95.2671 102.992C94.9471 104.016 94.8735 105.107 94.5727 106.141C94.0435 107.934 92.8389 109.452 91.2127 110.374C90.0479 111.014 88.7231 111.334 87.5327 111.949C85.4783 112.96 83.8207 115.171 84.1119 117.472Z" fill="#007FFF"/>
<path opacity="0.7" d="M84.1119 117.472C84.3711 119.514 85.9967 121.059 87.3759 122.592C88.7551 124.125 90.0383 126.15 89.4175 128.115C89.2305 128.637 88.9766 129.133 88.6623 129.59C88.5151 129.821 88.4323 130.086 88.4228 130.359C88.4132 130.633 88.4771 130.903 88.6079 131.143C88.7387 131.383 88.9315 131.584 89.1663 131.724C89.401 131.864 89.669 131.938 89.9423 131.939H93.9231C94.2385 131.94 94.5464 131.842 94.8042 131.661C95.0621 131.479 95.2573 131.222 95.3631 130.925C95.9135 129.363 95.5519 127.405 94.8511 125.824C93.8911 123.69 92.4575 121.702 92.2303 119.379C91.9103 116.134 94.0735 113.155 96.5279 111.008C98.9823 108.861 101.869 107.149 103.85 104.56C105.53 102.371 106.451 99.6928 108.01 97.4208C109.44 95.344 111.373 93.6512 112.762 91.5488C115.846 86.8672 115.699 80.2784 112.41 75.7408C111.789 74.8832 110.707 74.0224 109.782 74.5376C109.425 74.7656 109.165 75.1179 109.053 75.5264C108.413 77.472 109.894 79.392 110.598 81.312C111.632 84.1376 110.944 87.392 109.341 89.952C107.738 92.512 105.312 94.432 102.762 96.032C99.8015 97.8816 96.3359 99.6704 95.2671 102.992C94.9471 104.016 94.8735 105.107 94.5727 106.141C94.0435 107.934 92.8389 109.452 91.2127 110.374C90.0479 111.014 88.7231 111.334 87.5327 111.949C85.4783 112.96 83.8207 115.171 84.1119 117.472Z" fill="white"/>
<path d="M80.6397 118.25C80.2845 120.214 81.3853 122.106 82.1213 123.962C82.8573 125.818 83.0813 128.285 81.4813 129.491C81.0717 129.811 80.5693 129.997 80.2237 130.381C79.6253 131.056 79.6989 132.131 80.1629 132.909C80.1629 132.934 80.1917 132.96 80.2109 132.986C80.3075 133.131 80.3626 133.3 80.3704 133.474C80.3781 133.648 80.3382 133.822 80.255 133.975C80.1717 134.128 80.0483 134.256 79.8979 134.344C79.7475 134.433 79.5758 134.479 79.4013 134.477H66.2173C65.9834 134.482 65.7559 134.401 65.5773 134.25C63.6125 132.573 61.7661 130.611 61.5485 128.102C61.3661 126.013 62.4061 123.968 63.8653 122.464C64.7965 121.504 65.9613 120.608 66.2109 119.296C66.4733 117.901 65.5709 116.547 64.5309 115.584C62.5309 113.741 59.9165 112.73 57.6733 111.19C55.4301 109.651 53.4397 107.2 53.7853 104.49C54.0477 102.381 55.6861 100.688 57.4813 99.5488C58.5501 98.8704 59.7565 98.3168 61.0429 98.4864C61.4927 98.5299 61.9229 98.6917 62.29 98.9553C62.657 99.2189 62.9477 99.5749 63.1325 99.9872C63.8429 101.734 62.0829 103.466 61.8525 105.325C61.6221 107.123 62.8765 108.81 64.3773 109.83C65.8781 110.851 67.6413 111.398 69.2157 112.294C70.7901 113.19 72.2621 114.605 72.4541 116.41C72.5538 117.391 72.2655 118.371 71.6509 119.142C70.5469 120.518 67.9517 121.382 67.9741 123.421C67.9933 125.11 69.5741 126.794 70.9309 127.632C72.2877 128.47 74.0541 128.842 75.5965 128.202C77.1389 127.562 77.8013 125.712 78.0253 124.208C78.4125 121.648 77.2029 119.498 76.2269 117.216C75.3949 115.277 74.3581 112.736 75.4685 110.701C75.5415 110.565 75.6239 110.435 75.7149 110.31C76.0641 109.807 76.5265 109.392 77.0651 109.1C77.6036 108.808 78.2032 108.646 78.8157 108.627C81.1677 108.627 83.1549 111.117 82.7101 113.427C82.3677 115.149 80.9597 116.522 80.6397 118.25Z" fill="#007FFF"/>
<path opacity="0.4" d="M80.6397 118.25C80.2845 120.214 81.3853 122.106 82.1213 123.962C82.8573 125.818 83.0813 128.285 81.4813 129.491C81.0717 129.811 80.5693 129.997 80.2237 130.381C79.6253 131.056 79.6989 132.131 80.1629 132.909C80.1629 132.934 80.1917 132.96 80.2109 132.986C80.3075 133.131 80.3626 133.3 80.3704 133.474C80.3781 133.648 80.3382 133.822 80.255 133.975C80.1717 134.128 80.0483 134.256 79.8979 134.344C79.7475 134.433 79.5758 134.479 79.4013 134.477H66.2173C65.9834 134.482 65.7559 134.401 65.5773 134.25C63.6125 132.573 61.7661 130.611 61.5485 128.102C61.3661 126.013 62.4061 123.968 63.8653 122.464C64.7965 121.504 65.9613 120.608 66.2109 119.296C66.4733 117.901 65.5709 116.547 64.5309 115.584C62.5309 113.741 59.9165 112.73 57.6733 111.19C55.4301 109.651 53.4397 107.2 53.7853 104.49C54.0477 102.381 55.6861 100.688 57.4813 99.5488C58.5501 98.8704 59.7565 98.3168 61.0429 98.4864C61.4927 98.5299 61.9229 98.6917 62.29 98.9553C62.657 99.2189 62.9477 99.5749 63.1325 99.9872C63.8429 101.734 62.0829 103.466 61.8525 105.325C61.6221 107.123 62.8765 108.81 64.3773 109.83C65.8781 110.851 67.6413 111.398 69.2157 112.294C70.7901 113.19 72.2621 114.605 72.4541 116.41C72.5538 117.391 72.2655 118.371 71.6509 119.142C70.5469 120.518 67.9517 121.382 67.9741 123.421C67.9933 125.11 69.5741 126.794 70.9309 127.632C72.2877 128.47 74.0541 128.842 75.5965 128.202C77.1389 127.562 77.8013 125.712 78.0253 124.208C78.4125 121.648 77.2029 119.498 76.2269 117.216C75.3949 115.277 74.3581 112.736 75.4685 110.701C75.5415 110.565 75.6239 110.435 75.7149 110.31C76.0641 109.807 76.5265 109.392 77.0651 109.1C77.6036 108.808 78.2032 108.646 78.8157 108.627C81.1677 108.627 83.1549 111.117 82.7101 113.427C82.3677 115.149 80.9597 116.522 80.6397 118.25Z" fill="white"/>
<path d="M39.584 132.362C39.4244 132.622 39.1996 132.836 38.9319 132.982C38.6641 133.129 38.3627 133.203 38.0576 133.197H30.5184C27.4144 133.197 25.28 130.026 29.3344 128.106C33.008 126.368 41.1776 129.6 39.584 132.362Z" fill="#007FFF"/>
<path opacity="0.2" d="M39.584 132.362C39.4244 132.622 39.1996 132.836 38.9319 132.982C38.6641 133.129 38.3627 133.203 38.0576 133.197H30.5184C27.4144 133.197 25.28 130.026 29.3344 128.106C33.008 126.368 41.1776 129.6 39.584 132.362Z" fill="white"/>
<path opacity="0.4" d="M37.2001 129.683C37.1009 129.923 36.5601 129.933 35.9841 129.702C35.4081 129.472 35.0241 129.091 35.1361 128.851C35.2481 128.611 35.7761 128.602 36.3521 128.832C36.9281 129.062 37.3025 129.443 37.2001 129.683Z" fill="white"/>
<path opacity="0.4" d="M38.2142 130.819C38.1534 130.947 37.8942 130.973 37.6702 130.874C37.4462 130.775 37.283 130.586 37.3502 130.458C37.4174 130.33 37.6702 130.307 37.8942 130.407C38.1182 130.506 38.275 130.691 38.2142 130.819Z" fill="white"/>
<path opacity="0.4" d="M36.6786 130.608C36.6338 130.707 36.4834 130.736 36.3394 130.675C36.1954 130.614 36.1154 130.486 36.157 130.39C36.1959 130.339 36.2523 130.304 36.3154 130.292C36.3785 130.279 36.444 130.29 36.4994 130.323C36.6434 130.384 36.7234 130.512 36.6786 130.608Z" fill="white"/>
<path d="M38.4639 133.959C38.5207 134.131 38.6279 134.282 38.7717 134.393C38.9155 134.504 39.0892 134.569 39.2703 134.579H43.2543C44.8959 134.579 46.0223 132.208 43.8943 130.775C41.9391 129.472 37.6223 131.895 38.4639 133.959Z" fill="#007FFF"/>
<path opacity="0.4" d="M38.4639 133.959C38.5207 134.131 38.6279 134.282 38.7717 134.393C38.9155 134.504 39.0892 134.569 39.2703 134.579H43.2543C44.8959 134.579 46.0223 132.208 43.8943 130.775C41.9391 129.472 37.6223 131.895 38.4639 133.959Z" fill="white"/>
<path d="M99.4239 133.322C100.147 134.118 101.066 134.566 101.808 134.566H110.886C114.627 134.566 115.123 129.84 108.986 126.979C103.424 124.384 95.7055 129.213 99.4239 133.322Z" fill="#007FFF"/>
<path opacity="0.4" d="M99.4239 133.322C100.147 134.118 101.066 134.566 101.808 134.566H110.886C114.627 134.566 115.123 129.84 108.986 126.979C103.424 124.384 95.7055 129.213 99.4239 133.322Z" fill="white"/>
<path opacity="0.4" d="M103.309 127.542C103.469 127.833 103.098 128.349 102.48 128.688C101.863 129.027 101.226 129.069 101.066 128.777C100.906 128.486 101.277 127.971 101.895 127.632C102.512 127.293 103.146 127.251 103.309 127.542Z" fill="white"/>
<path opacity="0.4" d="M104.96 127.978C105.021 128.151 104.838 128.368 104.553 128.471C104.269 128.573 103.993 128.512 103.933 128.343C103.872 128.173 104.054 127.952 104.336 127.85C104.617 127.747 104.896 127.808 104.96 127.978Z" fill="white"/>
<path d="M92.7229 132.266C92.5887 132.525 92.3914 132.746 92.1492 132.909C91.9071 133.071 91.6278 133.171 91.3373 133.197H85.3981C82.9501 133.197 81.9773 129.661 85.5997 127.52C88.8797 125.581 94.5949 129.191 92.7229 132.266Z" fill="#007FFF"/>
<path opacity="0.1" d="M92.7229 132.266C92.5887 132.525 92.3914 132.746 92.1492 132.909C91.9071 133.071 91.6278 133.171 91.3373 133.197H85.3981C82.9501 133.197 81.9773 129.661 85.5997 127.52C88.8797 125.581 94.5949 129.191 92.7229 132.266Z" fill="white"/>
<path opacity="0.3" d="M21.411 110.004C21.4066 110.148 21.3592 110.289 21.275 110.407C21.1908 110.525 21.0736 110.615 20.9381 110.666C20.8025 110.717 20.6548 110.727 20.5137 110.695C20.3725 110.662 20.2441 110.588 20.1448 110.483C20.0456 110.377 19.9798 110.245 19.9559 110.102C19.9319 109.959 19.9509 109.812 20.0104 109.68C20.0699 109.548 20.1672 109.436 20.2901 109.36C20.4129 109.283 20.5558 109.244 20.7006 109.248C20.7969 109.251 20.8916 109.273 20.9794 109.313C21.0672 109.352 21.1464 109.409 21.2124 109.479C21.2783 109.549 21.3298 109.631 21.3639 109.721C21.398 109.811 21.414 109.907 21.411 110.004Z" fill="#007FFF"/>
<path opacity="0.3" d="M30.8129 87.9684C30.8084 88.1133 30.7611 88.2535 30.6769 88.3714C30.5927 88.4894 30.4754 88.5797 30.3399 88.631C30.2044 88.6823 30.0567 88.6923 29.9155 88.6597C29.7743 88.6271 29.646 88.5533 29.5467 88.4478C29.4474 88.3422 29.3816 88.2096 29.3577 88.0667C29.3338 87.9238 29.3528 87.777 29.4123 87.6449C29.4717 87.5127 29.5691 87.4012 29.6919 87.3244C29.8148 87.2475 29.9577 87.2089 30.1025 87.2132C30.2966 87.2199 30.4802 87.303 30.6133 87.4445C30.7463 87.586 30.8181 87.7743 30.8129 87.9684Z" fill="#007FFF"/>
<path opacity="0.3" d="M33.0529 103.656C33.763 102.987 33.7964 101.869 33.1274 101.159C32.4585 100.449 31.3406 100.415 30.6305 101.084C29.9204 101.753 29.887 102.871 30.5559 103.581C31.2249 104.291 32.3428 104.325 33.0529 103.656Z" fill="#007FFF"/>
<path opacity="0.3" d="M83.5199 104.595C83.5103 104.945 83.3971 105.284 83.1949 105.569C82.9926 105.854 82.7103 106.073 82.3837 106.197C82.057 106.322 81.7008 106.347 81.36 106.269C81.0193 106.191 80.7093 106.013 80.4694 105.759C80.2295 105.505 80.0705 105.185 80.0124 104.84C79.9543 104.496 79.9997 104.141 80.1431 103.822C80.2864 103.504 80.5211 103.235 80.8174 103.049C81.1138 102.864 81.4585 102.77 81.8079 102.781C82.2753 102.795 82.718 102.994 83.039 103.334C83.3599 103.675 83.5328 104.128 83.5199 104.595Z" fill="#007FFF"/>
<path opacity="0.3" d="M24.5532 107.715C24.5506 107.794 24.5247 107.871 24.4786 107.935C24.4326 107.999 24.3685 108.049 24.2945 108.077C24.2205 108.104 24.1399 108.11 24.0628 108.092C23.9858 108.074 23.9158 108.034 23.8617 107.976C23.8076 107.918 23.7718 107.846 23.7588 107.768C23.7459 107.69 23.7563 107.61 23.7889 107.538C23.8215 107.465 23.8747 107.405 23.9418 107.363C24.0089 107.321 24.0869 107.3 24.166 107.302C24.2185 107.304 24.2702 107.316 24.3181 107.338C24.366 107.359 24.4092 107.39 24.4452 107.429C24.4811 107.467 24.5092 107.512 24.5277 107.561C24.5463 107.61 24.5549 107.663 24.5532 107.715Z" fill="#007FFF"/>
<path opacity="0.3" d="M87.1938 103.533C87.1893 103.678 87.1419 103.818 87.0577 103.936C86.9735 104.054 86.8563 104.144 86.7208 104.195C86.5852 104.247 86.4376 104.257 86.2964 104.224C86.1552 104.192 86.0268 104.118 85.9276 104.012C85.8283 103.907 85.7625 103.774 85.7386 103.631C85.7146 103.488 85.7336 103.341 85.7931 103.209C85.8526 103.077 85.9499 102.966 86.0728 102.889C86.1956 102.812 86.3385 102.773 86.4834 102.778C86.5796 102.781 86.6743 102.802 86.7621 102.842C86.8499 102.881 86.9291 102.938 86.9951 103.008C87.061 103.078 87.1126 103.161 87.1466 103.251C87.1807 103.341 87.1968 103.437 87.1938 103.533Z" fill="#007FFF"/>
<path opacity="0.3" d="M94.2113 95.7761C94.2081 95.8549 94.1816 95.9311 94.1352 95.995C94.0888 96.0589 94.0245 96.1076 93.9505 96.135C93.8764 96.1624 93.7959 96.1673 93.7191 96.149C93.6423 96.1308 93.5726 96.0902 93.5188 96.0324C93.465 95.9746 93.4295 95.9022 93.4168 95.8242C93.4041 95.7463 93.4148 95.6664 93.4474 95.5945C93.48 95.5226 93.5332 95.462 93.6003 95.4203C93.6673 95.3785 93.7452 95.3576 93.8241 95.3601C93.877 95.3613 93.9292 95.3731 93.9775 95.3948C94.0258 95.4165 94.0693 95.4476 94.1054 95.4864C94.1415 95.5252 94.1695 95.5708 94.1876 95.6205C94.2058 95.6703 94.2139 95.7232 94.2113 95.7761Z" fill="#007FFF"/>
<path opacity="0.3" d="M19.8174 100.621C19.8148 100.7 19.7888 100.777 19.7428 100.841C19.6968 100.905 19.6327 100.954 19.5587 100.982C19.4846 101.01 19.404 101.016 19.327 100.998C19.2499 100.98 19.1799 100.939 19.1258 100.882C19.0717 100.824 19.0359 100.752 19.023 100.674C19.01 100.595 19.0205 100.515 19.0531 100.443C19.0856 100.371 19.1388 100.31 19.206 100.269C19.2731 100.227 19.3511 100.206 19.4302 100.208C19.4827 100.21 19.5344 100.222 19.5823 100.243C19.6302 100.265 19.6734 100.296 19.7093 100.334C19.7453 100.373 19.7733 100.418 19.7919 100.467C19.8104 100.516 19.8191 100.568 19.8174 100.621Z" fill="#007FFF"/>
<path opacity="0.3" d="M144.438 102.128C144.434 102.274 144.387 102.415 144.303 102.534C144.219 102.653 144.101 102.744 143.965 102.796C143.829 102.848 143.681 102.859 143.539 102.826C143.397 102.794 143.267 102.72 143.167 102.614C143.067 102.508 143.001 102.375 142.977 102.231C142.952 102.088 142.971 101.94 143.031 101.807C143.091 101.674 143.188 101.562 143.312 101.485C143.435 101.407 143.579 101.369 143.724 101.373C143.919 101.379 144.104 101.462 144.237 101.603C144.371 101.745 144.443 101.933 144.438 102.128Z" fill="#007FFF"/>
<path opacity="0.3" d="M147.581 99.8402C147.578 99.9191 147.552 99.9955 147.506 100.06C147.46 100.124 147.396 100.173 147.323 100.201C147.249 100.229 147.168 100.235 147.091 100.217C147.014 100.199 146.944 100.159 146.89 100.102C146.836 100.045 146.8 99.9726 146.786 99.8947C146.773 99.8169 146.783 99.7369 146.815 99.6647C146.847 99.5926 146.9 99.5315 146.967 99.4893C147.033 99.4471 147.111 99.4255 147.19 99.4274C147.243 99.4286 147.295 99.4403 147.343 99.4618C147.392 99.4832 147.435 99.514 147.471 99.5524C147.508 99.5908 147.536 99.636 147.555 99.6854C147.573 99.7348 147.582 99.7874 147.581 99.8402Z" fill="#007FFF"/>
<path opacity="0.3" d="M142.845 92.746C142.842 92.8251 142.816 92.9016 142.77 92.9659C142.724 93.0302 142.66 93.0794 142.586 93.1073C142.512 93.1352 142.431 93.1405 142.354 93.1226C142.277 93.1047 142.207 93.0643 142.153 93.0067C142.099 92.949 142.063 92.8765 142.05 92.7985C142.037 92.7205 142.048 92.6404 142.08 92.5683C142.113 92.4962 142.166 92.4354 142.233 92.3936C142.3 92.3517 142.378 92.3307 142.458 92.3332C142.51 92.3349 142.562 92.3469 142.61 92.3685C142.658 92.3901 142.701 92.421 142.737 92.4593C142.773 92.4977 142.801 92.5427 142.819 92.5919C142.838 92.6411 142.846 92.6935 142.845 92.746Z" fill="#007FFF"/>
<path opacity="0.3" d="M72.5443 97.3508C72.536 97.6342 72.4438 97.9087 72.2795 98.1397C72.1151 98.3707 71.886 98.5478 71.621 98.6485C71.3561 98.7493 71.0672 98.7693 70.7908 98.7059C70.5145 98.6425 70.2632 98.4987 70.0686 98.2925C69.8741 98.0863 69.745 97.8271 69.6978 97.5475C69.6505 97.268 69.6872 96.9808 69.8032 96.7221C69.9192 96.4634 70.1093 96.2449 70.3494 96.0942C70.5895 95.9436 70.8689 95.8675 71.1523 95.8756C71.3406 95.881 71.526 95.9234 71.6979 96.0005C71.8697 96.0775 72.0247 96.1877 72.154 96.3247C72.2833 96.4617 72.3843 96.6229 72.4513 96.7989C72.5182 96.975 72.5499 97.1625 72.5443 97.3508Z" fill="#007FFF"/>
<path opacity="0.3" d="M43.2925 90.9284C43.2772 91.4158 43.1176 91.8878 42.8341 92.2847C42.5506 92.6816 42.1558 92.9855 41.6996 93.1581C41.2434 93.3307 40.7463 93.3642 40.2711 93.2544C39.7959 93.1446 39.3639 92.8964 39.0297 92.5411C38.6955 92.1859 38.474 91.7396 38.3934 91.2586C38.3127 90.7776 38.3764 90.2835 38.5764 89.8386C38.7765 89.3938 39.1038 89.0182 39.5172 88.7594C39.9306 88.5006 40.4114 88.3701 40.8989 88.3844C41.2234 88.3935 41.5429 88.4666 41.839 88.5995C42.1351 88.7324 42.402 88.9225 42.6244 89.1589C42.8468 89.3953 43.0204 89.6733 43.135 89.977C43.2497 90.2806 43.3032 90.604 43.2925 90.9284Z" fill="#007FFF"/>
<path opacity="0.3" d="M124.093 75.5202C124.082 75.9057 123.957 76.2793 123.734 76.5936C123.51 76.908 123.199 77.149 122.838 77.2862C122.478 77.4234 122.085 77.4506 121.709 77.3643C121.333 77.278 120.991 77.0822 120.727 76.8015C120.462 76.5209 120.287 76.1681 120.223 75.7878C120.159 75.4075 120.21 75.0168 120.368 74.6651C120.526 74.3135 120.785 74.0167 121.112 73.8123C121.439 73.6079 121.82 73.5052 122.205 73.517C122.721 73.5329 123.209 73.7527 123.563 74.1283C123.917 74.5038 124.108 75.0044 124.093 75.5202Z" fill="#007FFF"/>
<path d="M73.7047 60.8478C73.7047 60.8478 70.6167 60.1887 69.6919 61.0271C68.6871 59.7791 63.3463 55.9487 60.5303 58.1887C60.9303 61.7663 67.4135 62.8447 69.0103 62.6687C69.1191 63.7951 71.5703 65.4174 71.5703 65.4174C71.5703 65.4174 71.4359 63.571 71.0263 62.5374C72.4599 62.1502 73.7047 60.8478 73.7047 60.8478Z" fill="#007FFF"/>
<path d="M56.2722 53.8495C56.2722 53.8495 52.6754 52.0383 51.2258 52.5695C50.429 50.8959 45.1778 44.9407 40.8802 46.2719C40.0866 50.1663 47.7474 53.6479 49.7858 54.0479C49.517 55.2671 51.9778 57.8591 51.9778 57.8591C51.9778 57.8591 52.4802 55.8719 52.3394 54.6591C54.2562 54.7615 56.2722 53.8495 56.2722 53.8495Z" fill="#007FFF"/>
<path opacity="0.6" d="M56.2722 53.8495C56.2722 53.8495 52.6754 52.0383 51.2258 52.5695C50.429 50.8959 45.1778 44.9407 40.8802 46.2719C40.0866 50.1663 47.7474 53.6479 49.7858 54.0479C49.517 55.2671 51.9778 57.8591 51.9778 57.8591C51.9778 57.8591 52.4802 55.8719 52.3394 54.6591C54.2562 54.7615 56.2722 53.8495 56.2722 53.8495Z" fill="white"/>
<path d="M50.5593 41.8688C50.5593 41.8688 47.8809 38.4 46.3673 38.2048C46.1977 36.2432 43.3753 28.0736 38.9817 27.2192C36.9465 30.4896 42.8217 37.5168 44.5497 38.8896C43.8937 39.904 45.2825 43.5424 45.2825 43.5424C45.2825 43.5424 46.4089 41.9232 46.6905 40.704C47.8847 41.358 49.2026 41.7548 50.5593 41.8688Z" fill="#007FFF"/>
<path d="M70.6333 39.1776C70.6333 39.1776 68.7997 38.7872 68.2525 39.2832C67.6541 38.5408 64.4829 36.2688 62.8125 37.6C63.0493 39.7216 66.8989 40.3616 67.8461 40.2592C67.9101 40.928 69.3661 41.8912 69.3661 41.8912C69.3274 41.312 69.2199 40.7395 69.0461 40.1856C69.6452 39.9751 70.1881 39.6303 70.6333 39.1776Z" fill="#007FFF"/>
<path d="M68.5656 33.9454C68.5656 33.9454 66.684 32.9854 66.0408 33.2862C65.5096 32.403 62.4632 29.2702 60.5304 29.987C60.5048 32.0478 64.4792 33.8686 65.4872 34.0734C65.4712 34.7134 66.8792 36.0798 66.8792 36.0798C66.9127 35.5117 66.8729 34.9417 66.7608 34.3838C67.3892 34.3876 68.0089 34.237 68.5656 33.9454Z" fill="#007FFF"/>
<path opacity="0.6" d="M68.5656 33.9454C68.5656 33.9454 66.684 32.9854 66.0408 33.2862C65.5096 32.403 62.4632 29.2702 60.5304 29.987C60.5048 32.0478 64.4792 33.8686 65.4872 34.0734C65.4712 34.7134 66.8792 36.0798 66.8792 36.0798C66.9127 35.5117 66.8729 34.9417 66.7608 34.3838C67.3892 34.3876 68.0089 34.237 68.5656 33.9454Z" fill="white"/>
<path d="M48.6398 25.4274C48.6398 25.4274 47.3406 23.1682 46.4702 22.9282C46.531 21.757 45.5486 16.7234 43.0366 15.8594C41.5998 17.6002 44.4478 22.2274 45.3566 23.1778C44.8862 23.7186 45.4046 25.9746 45.4046 25.9746C45.8335 25.5126 46.1915 24.9896 46.467 24.4226C47.1136 24.9048 47.8535 25.247 48.6398 25.4274Z" fill="#007FFF"/>
<path opacity="0.6" d="M48.6398 25.4274C48.6398 25.4274 47.3406 23.1682 46.4702 22.9282C46.531 21.757 45.5486 16.7234 43.0366 15.8594C41.5998 17.6002 44.4478 22.2274 45.3566 23.1778C44.8862 23.7186 45.4046 25.9746 45.4046 25.9746C45.8335 25.5126 46.1915 24.9896 46.467 24.4226C47.1136 24.9048 47.8535 25.247 48.6398 25.4274Z" fill="white"/>
<path d="M46.7198 57.4719C46.7198 57.4719 44.7998 57.0655 44.2334 57.5839C43.6094 56.8095 40.3006 54.4383 38.5566 55.8271C38.8062 58.0415 42.8222 58.7071 43.811 58.6047C43.8782 59.2991 45.411 60.3071 45.411 60.3071C45.3689 59.7019 45.2561 59.1037 45.075 58.5247C45.6959 58.3027 46.2583 57.9428 46.7198 57.4719Z" fill="#007FFF"/>
<path opacity="0.3" d="M46.7198 57.4719C46.7198 57.4719 44.7998 57.0655 44.2334 57.5839C43.6094 56.8095 40.3006 54.4383 38.5566 55.8271C38.8062 58.0415 42.8222 58.7071 43.811 58.6047C43.8782 59.2991 45.411 60.3071 45.411 60.3071C45.3689 59.7019 45.2561 59.1037 45.075 58.5247C45.6959 58.3027 46.2583 57.9428 46.7198 57.4719Z" fill="white"/>
<path d="M38.249 49.8718C38.249 49.8718 36.2842 48.883 35.6122 49.187C35.0586 48.2654 31.881 44.9949 29.8522 45.7437C29.8266 47.8941 33.9706 49.7918 35.0266 50.0062C35.0074 50.6782 36.4762 52.1022 36.4762 52.1022C36.5115 51.5095 36.4706 50.9148 36.3546 50.3325C37.0142 50.3364 37.6648 50.1781 38.249 49.8718Z" fill="#007FFF"/>
<path d="M33.5997 55.2096C33.5997 55.2096 31.4589 53.9296 30.5405 54.1984C30.1245 53.1296 27.1485 49.2129 24.4317 49.8401C23.7597 52.2113 28.3357 54.72 29.5773 55.04C29.3565 55.7824 30.7581 57.4944 30.7581 57.4944C30.9719 56.8587 31.0968 56.1964 31.1293 55.5265C31.9658 55.5925 32.807 55.4846 33.5997 55.2096Z" fill="#007FFF"/>
<path opacity="0.6" d="M33.5997 55.2096C33.5997 55.2096 31.4589 53.9296 30.5405 54.1984C30.1245 53.1296 27.1485 49.2129 24.4317 49.8401C23.7597 52.2113 28.3357 54.72 29.5773 55.04C29.3565 55.7824 30.7581 57.4944 30.7581 57.4944C30.9719 56.8587 31.0968 56.1964 31.1293 55.5265C31.9658 55.5925 32.807 55.4846 33.5997 55.2096Z" fill="white"/>
<path d="M30.1182 40.8574C30.1182 40.8574 29.0302 40.451 28.6494 40.707C28.3486 40.2014 26.6078 38.5214 25.4494 39.187C25.4046 40.5118 27.7086 41.2478 28.2974 41.2702C28.275 41.6862 29.0814 42.4062 29.0814 42.4062C29.1095 42.0474 29.0955 41.6865 29.0398 41.331C29.431 41.2584 29.8 41.0963 30.1182 40.8574Z" fill="#007FFF"/>
<path d="M69.3983 50.3872C69.3983 50.3872 66.2303 48.7872 65.1455 49.2832C64.2495 47.7952 59.1199 42.5152 55.8655 43.7216C55.8207 47.1936 62.5151 50.2592 64.2175 50.6048C64.1855 51.6928 66.5599 53.9904 66.5599 53.9904C66.5599 53.9904 66.6623 52.2176 66.3647 51.1296C67.4214 51.1339 68.463 50.879 69.3983 50.3872Z" fill="#007FFF"/>
<path opacity="0.3" d="M69.3983 50.3872C69.3983 50.3872 66.2303 48.7872 65.1455 49.2832C64.2495 47.7952 59.1199 42.5152 55.8655 43.7216C55.8207 47.1936 62.5151 50.2592 64.2175 50.6048C64.1855 51.6928 66.5599 53.9904 66.5599 53.9904C66.5599 53.9904 66.6623 52.2176 66.3647 51.1296C67.4214 51.1339 68.463 50.879 69.3983 50.3872Z" fill="black"/>
<path d="M57.8626 35.987C57.8626 35.987 55.8114 34.7582 54.9314 35.027C54.5314 34.003 51.6802 30.2494 49.0786 30.851C48.4386 33.123 52.8226 35.5166 54.0162 35.8398C53.8018 36.5502 55.1458 38.1918 55.1458 38.1918C55.3506 37.583 55.4702 36.9487 55.501 36.307C56.3018 36.3647 57.106 36.2558 57.8626 35.987Z" fill="#007FFF"/>
<path opacity="0.3" d="M57.8626 35.987C57.8626 35.987 55.8114 34.7582 54.9314 35.027C54.5314 34.003 51.6802 30.2494 49.0786 30.851C48.4386 33.123 52.8226 35.5166 54.0162 35.8398C53.8018 36.5502 55.1458 38.1918 55.1458 38.1918C55.3506 37.583 55.4702 36.9487 55.501 36.307C56.3018 36.3647 57.106 36.2558 57.8626 35.987Z" fill="black"/>
<path d="M26.2174 46.4383C26.2174 46.4383 24.2686 44.5439 23.3374 44.5503C23.0654 43.3599 20.6398 38.5887 17.8718 38.4351C16.9118 40.6175 21.0974 44.4287 22.2814 45.1231C21.9614 45.8015 23.1262 47.9167 23.1262 47.9167C23.4307 47.331 23.6464 46.7034 23.7662 46.0543C24.5475 46.3518 25.3825 46.4826 26.2174 46.4383Z" fill="#007FFF"/>
<path opacity="0.3" d="M26.2174 46.4383C26.2174 46.4383 24.2686 44.5439 23.3374 44.5503C23.0654 43.3599 20.6398 38.5887 17.8718 38.4351C16.9118 40.6175 21.0974 44.4287 22.2814 45.1231C21.9614 45.8015 23.1262 47.9167 23.1262 47.9167C23.4307 47.331 23.6464 46.7034 23.7662 46.0543C24.5475 46.3518 25.3825 46.4826 26.2174 46.4383Z" fill="black"/>
<path d="M37.331 37.5616C37.331 37.5616 36.1726 36.656 35.6926 36.768C35.4494 36.0896 33.7982 33.5296 32.3774 33.7536C32.0766 35.1584 34.5438 36.9536 35.2062 37.2256C35.107 37.6672 35.8814 38.7904 35.8814 38.7904C35.982 38.407 36.0336 38.0124 36.035 37.616C36.465 37.7028 36.9097 37.6841 37.331 37.5616Z" fill="#007FFF"/>
<path opacity="0.3" d="M37.331 37.5616C37.331 37.5616 36.1726 36.656 35.6926 36.768C35.4494 36.0896 33.7982 33.5296 32.3774 33.7536C32.0766 35.1584 34.5438 36.9536 35.2062 37.2256C35.107 37.6672 35.8814 38.7904 35.8814 38.7904C35.982 38.407 36.0336 38.0124 36.035 37.616C36.465 37.7028 36.9097 37.6841 37.331 37.5616Z" fill="black"/>
<path d="M35.7729 17.28C35.7729 17.28 35.2033 16.1056 34.7777 16C34.8481 15.36 34.5281 12.6752 33.3089 12.3008C32.5185 13.3056 33.7889 15.696 34.2113 16.176C33.9585 16.496 34.1409 17.6896 34.1409 17.6896C34.3697 17.4214 34.5643 17.1258 34.7201 16.8096C35.0271 17.0505 35.3886 17.2121 35.7729 17.28Z" fill="#007FFF"/>
<path opacity="0.3" d="M35.7729 17.28C35.7729 17.28 35.2033 16.1056 34.7777 16C34.8481 15.36 34.5281 12.6752 33.3089 12.3008C32.5185 13.3056 33.7889 15.696 34.2113 16.176C33.9585 16.496 34.1409 17.6896 34.1409 17.6896C34.3697 17.4214 34.5643 17.1258 34.7201 16.8096C35.0271 17.0505 35.3886 17.2121 35.7729 17.28Z" fill="black"/>
<path d="M27.2826 33.376C27.2826 33.376 26.137 32.4416 25.5738 32.5216C25.4202 31.856 24.009 29.3024 22.3738 29.4368C21.7786 30.7712 24.2522 32.6368 24.9498 32.9376C24.7578 33.3536 25.433 34.48 25.433 34.48C25.613 34.1251 25.7433 33.7471 25.8202 33.3568C26.3012 33.4634 26.799 33.47 27.2826 33.376Z" fill="#007FFF"/>
<path opacity="0.6" d="M27.2826 33.376C27.2826 33.376 26.137 32.4416 25.5738 32.5216C25.4202 31.856 24.009 29.3024 22.3738 29.4368C21.7786 30.7712 24.2522 32.6368 24.9498 32.9376C24.7578 33.3536 25.433 34.48 25.433 34.48C25.613 34.1251 25.7433 33.7471 25.8202 33.3568C26.3012 33.4634 26.799 33.47 27.2826 33.376Z" fill="white"/>
<path d="M32.4984 26.8546C32.4984 26.8546 31.2856 25.2546 30.6008 25.1746C30.5304 24.2818 29.2728 20.557 27.2792 20.1602C26.3448 21.6354 28.9848 24.8482 29.7592 25.4786C29.4392 25.9362 30.0792 27.597 30.0792 27.597C30.3537 27.2037 30.5693 26.7725 30.7192 26.317C31.2675 26.62 31.874 26.8032 32.4984 26.8546Z" fill="#007FFF"/>
<path d="M102.762 35.6261L101.613 34.8805C101.174 34.6015 100.643 34.5075 100.135 34.6191C99.6274 34.7306 99.1844 35.0385 98.9028 35.4757L103.36 38.3365C103.639 37.8973 103.733 37.3657 103.62 36.8578C103.508 36.3499 103.2 35.9071 102.762 35.6261Z" fill="#263238"/>
<path d="M100.245 35.618L102.672 37.1689C103.53 37.7173 104.135 38.5841 104.354 39.5787C104.573 40.5733 104.388 41.6142 103.84 42.4723L94.5642 56.9873C94.4018 57.2416 94.1908 57.4613 93.9434 57.634C93.696 57.8068 93.417 57.9291 93.1223 57.994C92.8277 58.0589 92.5231 58.0651 92.226 58.0123C91.929 57.9595 91.6452 57.8486 91.391 57.6862L86.3648 54.4743C85.8513 54.1461 85.4892 53.6275 85.3582 53.0324C85.2271 52.4373 85.3378 51.8145 85.6659 51.301L94.9415 36.786C95.4899 35.9279 96.3568 35.3227 97.3514 35.1036C98.346 34.8846 99.3868 35.0696 100.245 35.618Z" fill="#007FFF"/>
<path opacity="0.6" d="M100.245 35.618L102.672 37.1689C103.53 37.7173 104.135 38.5841 104.354 39.5787C104.573 40.5733 104.388 41.6142 103.84 42.4723L94.5642 56.9873C94.4018 57.2416 94.1908 57.4613 93.9434 57.634C93.696 57.8068 93.417 57.9291 93.1223 57.994C92.8277 58.0589 92.5231 58.0651 92.226 58.0123C91.929 57.9595 91.6452 57.8486 91.391 57.6862L86.3648 54.4743C85.8513 54.1461 85.4892 53.6275 85.3582 53.0324C85.2271 52.4373 85.3378 51.8145 85.6659 51.301L94.9415 36.786C95.4899 35.9279 96.3568 35.3227 97.3514 35.1036C98.346 34.8846 99.3868 35.0696 100.245 35.618Z" fill="white"/>
<path opacity="0.5" d="M99.6258 49.0818C96.3762 47.6646 93.3707 45.7433 90.7202 43.389L92.7554 40.189C95.4071 42.5434 98.4136 44.4646 101.664 45.8818C100.984 46.9527 100.304 48.0194 99.6258 49.0818Z" fill="#007FFF"/>
<path d="M113.124 44.9987L113.181 45.6739L113.249 46.3875C113.3 46.8675 113.351 47.3475 113.412 47.8275C113.533 48.7875 113.661 49.7475 113.834 50.6915C114.146 52.5599 114.603 54.4012 115.201 56.1987C115.274 56.4195 115.357 56.6307 115.437 56.8387L115.559 57.1587L115.588 57.2387V57.2611V57.2355L115.562 57.1907C115.528 57.135 115.488 57.0825 115.444 57.0339C115.391 56.9684 115.326 56.9141 115.252 56.8739C115.21 56.8515 115.201 56.8739 115.207 56.8739C115.286 56.9317 115.375 56.974 115.469 56.9987C115.832 57.1009 116.204 57.1653 116.58 57.1907C117.005 57.2355 117.466 57.2515 117.933 57.2547C119.809 57.2547 121.831 57.0883 123.799 56.9347H123.841C124.135 56.9111 124.429 56.9934 124.668 57.1668C124.908 57.3402 125.077 57.5934 125.147 57.8807C125.216 58.1681 125.181 58.4708 125.047 58.7343C124.913 58.9979 124.69 59.2051 124.417 59.3187C123.434 59.7231 122.43 60.0735 121.409 60.3683C120.371 60.673 119.317 60.9146 118.25 61.0915C117.7 61.1747 117.14 61.2451 116.548 61.2803C115.907 61.3166 115.264 61.2887 114.628 61.1971C114.218 61.1383 113.816 61.0309 113.431 60.8771C113.183 60.7737 112.945 60.6473 112.721 60.4995C112.441 60.3095 112.189 60.0811 111.972 59.8211C111.85 59.6728 111.743 59.5131 111.652 59.3443L111.581 59.2131L111.537 59.1235L111.492 59.0307L111.309 58.6499C111.194 58.3971 111.066 58.1411 110.957 57.8851C110.105 55.8723 109.454 53.7799 109.015 51.6387C108.794 50.5827 108.612 49.5267 108.477 48.4643C108.407 47.9331 108.346 47.4019 108.301 46.8643C108.279 46.5955 108.257 46.3267 108.241 46.0547C108.225 45.7827 108.212 45.5235 108.199 45.2067C108.174 44.5582 108.405 43.9259 108.841 43.4453C109.277 42.9647 109.884 42.6742 110.532 42.6361C111.179 42.598 111.816 42.8153 112.306 43.2415C112.795 43.6676 113.098 44.2686 113.149 44.9155L113.124 44.9987Z" fill="#263238"/>
<path d="M123.946 56.941L126.285 54.9858L127.206 58.4546C127.206 58.4546 125.037 59.6098 123.462 59.037L123.443 58.045C123.438 57.8351 123.481 57.6267 123.568 57.4356C123.655 57.2444 123.784 57.0754 123.946 56.941Z" fill="#FFC3BD"/>
<path d="M129.316 55.5522L129.437 56.909C129.454 57.1149 129.402 57.3206 129.289 57.4941C129.177 57.6676 129.011 57.7993 128.817 57.869L127.217 58.445L126.295 54.9762L128.253 54.6914C128.38 54.6744 128.509 54.6836 128.632 54.7183C128.756 54.7529 128.87 54.8124 128.97 54.8929C129.069 54.9735 129.151 55.0735 129.211 55.1869C129.27 55.3002 129.306 55.4245 129.316 55.5522Z" fill="#FFC3BD"/>
<path d="M80.7622 52.5093L78.8678 54.8933L77.2998 52.3333C77.2998 52.3333 79.1558 50.0933 80.8198 50.3461L81.0406 51.3061C81.0889 51.5146 81.089 51.7314 81.0407 51.9399C80.9925 52.1484 80.8972 52.3432 80.7622 52.5093Z" fill="#FFC3BD"/>
<path d="M76.0263 54.9441L75.7063 53.9393C75.6592 53.7839 75.6651 53.6171 75.723 53.4654C75.7809 53.3136 75.8876 53.1854 76.0263 53.1009L77.2775 52.3457L78.8455 54.9057L76.9063 55.4529C76.7223 55.4984 76.5278 55.4708 76.3638 55.3759C76.1997 55.281 76.0787 55.1263 76.0263 54.9441Z" fill="#FFC3BD"/>
<path d="M113.076 46.8417C112.596 48.1377 113.396 52.5345 110.263 53.4785C109.415 55.3249 107.021 59.4305 104.141 63.0529L91.9077 56.1953C94.3429 53.0305 95.7637 49.7697 96.7077 40.7361C96.7588 40.2419 96.9133 39.764 97.1612 39.3334C97.409 38.9027 97.7447 38.5291 98.1464 38.2367C98.5481 37.9442 99.0068 37.7396 99.4927 37.636C99.9786 37.5324 100.481 37.5321 100.967 37.6353C101.517 37.7537 102.097 37.8881 102.682 38.0449C104.752 38.5454 106.784 39.1935 108.762 39.9841C109.402 40.2529 110.042 40.5537 110.666 40.8513C111.741 41.3713 112.583 42.2732 113.029 43.3808C113.474 44.4885 113.491 45.7224 113.076 46.8417Z" fill="#007FFF"/>
<path opacity="0.2" d="M100.66 41.1299C100.122 42.8099 97.706 44.8451 96.042 45.7283C96.2372 44.4931 96.3396 43.9491 96.5124 42.4611L100.66 41.1299Z" fill="black"/>
<path d="M105.3 30.8003C105.076 33.0883 104.34 37.5203 102.1 38.3395C102.1 38.3395 106.635 40.4355 109.326 44.9091C112.043 42.7491 109.873 40.6179 109.873 40.6179C107.243 39.0979 107.911 37.3699 108.961 35.8883L105.3 30.8003Z" fill="#007FFF"/>
<path opacity="0.2" d="M106.791 32.877L108.951 35.8882C108.701 36.2269 108.487 36.5904 108.311 36.973C107.278 36.477 106.135 34.9858 106.34 34.0002C106.407 33.5974 106.561 33.2142 106.791 32.877Z" fill="black"/>
<path d="M104.16 26.9345C104.042 30.3585 104.119 32.0289 105.562 33.9937C107.735 36.9537 111.908 36.4993 113.159 33.2225C114.282 30.2753 114.506 25.1809 111.434 23.3921C108.362 21.6033 104.279 23.5073 104.16 26.9345Z" fill="#007FFF"/>
<path opacity="0.3" d="M116.935 31.4789C116.93 31.6236 116.882 31.7635 116.798 31.881C116.713 31.9985 116.596 32.0884 116.46 32.1392C116.325 32.19 116.177 32.1995 116.036 32.1666C115.895 32.1336 115.767 32.0596 115.668 31.954C115.569 31.8483 115.504 31.7157 115.48 31.5729C115.456 31.4301 115.476 31.2835 115.535 31.1515C115.595 31.0196 115.692 30.9082 115.815 30.8315C115.938 30.7548 116.08 30.7162 116.225 30.7205C116.321 30.7234 116.416 30.7454 116.505 30.7851C116.593 30.8248 116.672 30.8816 116.738 30.952C116.804 31.0225 116.855 31.1054 116.889 31.1958C116.923 31.2862 116.939 31.3824 116.935 31.4789Z" fill="#007FFF"/>
<path opacity="0.3" d="M123.412 14.6691C123.407 14.8139 123.36 14.9542 123.276 15.0721C123.191 15.1901 123.074 15.2804 122.939 15.3317C122.803 15.383 122.655 15.393 122.514 15.3604C122.373 15.3278 122.245 15.254 122.145 15.1485C122.046 15.0429 121.98 14.9103 121.956 14.7674C121.932 14.6245 121.951 14.4777 122.011 14.3455C122.07 14.2134 122.168 14.1019 122.291 14.0251C122.413 13.9482 122.556 13.9095 122.701 13.9139C122.798 13.9164 122.892 13.9379 122.98 13.9773C123.068 14.0167 123.148 14.0731 123.214 14.1434C123.28 14.2136 123.331 14.2962 123.365 14.3864C123.399 14.4767 123.415 14.5728 123.412 14.6691Z" fill="#007FFF"/>
<path opacity="0.3" d="M120.874 17.8338C120.865 18.1832 120.752 18.5219 120.549 18.807C120.347 19.0921 120.065 19.3108 119.738 19.4354C119.412 19.56 119.055 19.5848 118.715 19.5068C118.374 19.4288 118.064 19.2515 117.824 18.9972C117.584 18.743 117.425 18.4232 117.367 18.0785C117.309 17.7338 117.354 17.3796 117.498 17.0608C117.641 16.7419 117.876 16.4728 118.172 16.2874C118.468 16.102 118.813 16.0087 119.162 16.0194C119.394 16.026 119.622 16.0782 119.833 16.173C120.045 16.2678 120.235 16.4033 120.394 16.5718C120.553 16.7403 120.678 16.9385 120.76 17.155C120.842 17.3716 120.881 17.6022 120.874 17.8338Z" fill="#007FFF"/>
<path opacity="0.3" d="M120.077 29.1909C120.075 29.2697 120.05 29.3462 120.005 29.4107C119.96 29.4753 119.896 29.5251 119.823 29.5538C119.75 29.5825 119.669 29.5889 119.592 29.5721C119.515 29.5553 119.445 29.5162 119.39 29.4596C119.335 29.4029 119.298 29.3314 119.284 29.2539C119.27 29.1763 119.279 29.0963 119.31 29.0238C119.341 28.9514 119.392 28.8897 119.458 28.8465C119.524 28.8034 119.602 28.7807 119.68 28.7813C119.734 28.7817 119.786 28.7926 119.835 28.8135C119.884 28.8344 119.928 28.8648 119.965 28.9029C120.002 28.9411 120.031 28.9861 120.05 29.0356C120.069 29.085 120.078 29.1378 120.077 29.1909Z" fill="#007FFF"/>
<path opacity="0.3" d="M115.341 22.0961C115.339 22.1752 115.313 22.2517 115.267 22.316C115.221 22.3803 115.157 22.4295 115.083 22.4574C115.009 22.4853 114.928 22.4906 114.851 22.4727C114.774 22.4548 114.704 22.4144 114.65 22.3568C114.596 22.2991 114.56 22.2266 114.547 22.1486C114.534 22.0706 114.544 21.9905 114.577 21.9184C114.61 21.8463 114.663 21.7855 114.73 21.7437C114.797 21.7018 114.875 21.6808 114.954 21.6833C115.007 21.685 115.058 21.697 115.106 21.7186C115.154 21.7402 115.197 21.7711 115.233 21.8095C115.269 21.8478 115.297 21.8928 115.316 21.942C115.334 21.9912 115.343 22.0436 115.341 22.0961Z" fill="#007FFF"/>
<path opacity="0.3" d="M119.252 25.3155C119.244 25.5991 119.152 25.8741 118.988 26.1056C118.824 26.337 118.595 26.5146 118.33 26.6158C118.065 26.7169 117.776 26.7371 117.499 26.6738C117.222 26.6105 116.971 26.4666 116.776 26.2602C116.581 26.0538 116.452 25.7942 116.405 25.5144C116.358 25.2346 116.395 24.9471 116.511 24.6883C116.628 24.4295 116.818 24.2111 117.059 24.0607C117.3 23.9103 117.579 23.8347 117.863 23.8435C118.242 23.856 118.601 24.0177 118.861 24.2935C119.121 24.5692 119.261 24.9365 119.252 25.3155Z" fill="#007FFF"/>
<path opacity="0.3" d="M125.226 22.2021C125.212 22.6907 125.053 23.1641 124.77 23.5624C124.487 23.9607 124.092 24.266 123.635 24.4397C123.178 24.6134 122.68 24.6477 122.204 24.5382C121.727 24.4287 121.294 24.1803 120.959 23.8245C120.624 23.4688 120.402 23.0216 120.321 22.5395C120.24 22.0575 120.304 21.5623 120.504 21.1166C120.705 20.6709 121.033 20.2947 121.448 20.0356C121.862 19.7766 122.344 19.6463 122.833 19.6613C123.157 19.6708 123.476 19.7441 123.772 19.877C124.067 20.0099 124.334 20.1997 124.556 20.4357C124.778 20.6716 124.952 20.9491 125.067 21.2522C125.182 21.5553 125.236 21.8781 125.226 22.2021Z" fill="#007FFF"/>
<path d="M107.453 27.7028C106.995 30.1124 106.979 31.594 107.843 33.1076C109.146 35.386 112.051 35.594 113.117 33.3252C113.92 31.6004 114.743 27.4532 112.704 25.9204C110.666 24.3876 107.911 25.2964 107.453 27.7028Z" fill="#FFC3BD"/>
<path d="M104.093 28.2852C104.394 28.1665 104.704 28.0754 105.021 28.0132C105.338 27.9482 105.659 27.9043 105.981 27.882C106.307 27.8564 106.634 27.8564 106.96 27.882C107.127 27.9012 107.28 27.914 107.456 27.946C107.54 27.9573 107.624 27.9734 107.706 27.994C107.748 27.9997 107.789 28.0116 107.828 28.0292C107.851 28.0628 107.864 28.1032 107.863 28.1444C107.871 28.2231 107.871 28.3025 107.863 28.3812C107.856 28.4992 107.826 28.6147 107.773 28.7204C107.741 28.7925 107.704 28.862 107.661 28.9284C107.644 28.9646 107.617 28.9955 107.584 29.018C107.546 29.018 107.517 29.018 107.482 29.018C107.447 29.018 107.344 28.986 107.277 28.9732C107.14 28.9444 106.996 28.922 106.855 28.8996C106.567 28.858 106.276 28.826 105.981 28.794C105.687 28.762 105.386 28.7428 105.082 28.7236C104.778 28.7044 104.471 28.682 104.167 28.65C104.117 28.6436 104.072 28.6184 104.041 28.5798C104.009 28.5411 103.993 28.4918 103.997 28.442C103.999 28.4099 104.008 28.3787 104.025 28.3514C104.042 28.324 104.065 28.3012 104.093 28.2852Z" fill="#263238"/>
<path d="M67.8148 75.3507L68.2564 74.6307C67.2964 73.6259 68.73 69.7027 65.3028 69.6003C62.282 69.5107 52.1828 70.6723 44.0036 69.0563C42.8804 68.8323 41.0212 69.2259 41.6516 71.6515C42.474 74.8227 41.5845 78.7811 45.7476 79.8307C50.202 80.9571 56.3748 74.3267 65.466 76.2851C65.9061 76.384 66.3658 76.3476 66.7848 76.1809C67.2039 76.0142 67.5629 75.7248 67.8148 75.3507Z" fill="#007FFF"/>
<path d="M104.142 63.0406C104.142 63.0406 95.2359 83.159 87.3863 91.8022C81.8247 101.252 65.2231 75.2006 65.2231 75.2006C59.0343 74.1094 58.5031 73.2806 65.1143 72.7686C66.0988 72.6911 67.0853 72.8907 67.9623 73.3446C71.2967 75.0822 79.8023 79.9206 82.2471 85.2038C86.4231 66.3014 93.4791 57.063 93.4791 57.063L104.142 63.0406Z" fill="#263238"/>
<path opacity="0.2" d="M73.6004 76.666C72.602 78.474 71.578 80.4612 70.5444 82.6468C72.0886 84.6464 73.739 86.5617 75.4884 88.3844C77.818 87.5972 79.3444 85.3604 80.6084 82.6244C78.7556 80.3972 76.0964 78.33 73.6004 76.666Z" fill="black"/>
<path opacity="0.2" d="M83.9912 78.362C84.772 75.6804 85.5912 73.258 86.4072 71.0884C87.1976 73.0436 86.8392 75.722 83.9912 78.362Z" fill="black"/>
<path d="M46.5475 99.4692L45.9779 98.8292C44.5891 99.2516 40.8259 97.1236 39.4243 99.9428C38.1891 102.429 36.3491 112.935 31.1043 116.976C30.9004 117.131 30.7404 117.337 30.6401 117.572C30.5398 117.808 30.5027 118.065 30.5324 118.32C30.5621 118.574 30.6577 118.816 30.8096 119.022C30.9615 119.228 31.1646 119.391 31.3987 119.495C34.6499 120.919 40.1315 122.64 42.7811 119.559C45.6163 116.266 41.1811 108.631 46.6211 101.776C46.8827 101.445 47.0187 101.032 47.0053 100.609C46.9918 100.187 46.8297 99.7835 46.5475 99.4692Z" fill="#007FFF"/>
<path d="M100.944 61.2609C100.944 61.2609 84.2497 75.6609 76.4961 83.0017C68.3521 90.6817 46.2913 100.899 45.6897 101.421C45.6897 101.421 42.3009 108.336 42.1857 105.277C42.1153 103.357 42.9857 101.52 43.6385 100.432C43.994 99.8523 44.4243 99.3219 44.9185 98.8545C47.7057 96.1857 59.9937 84.6817 69.7409 79.7505C82.5633 57.8977 91.9169 56.1953 91.9169 56.1953L100.944 61.2609Z" fill="#263238"/>
<path d="M109.245 28.7076C109.207 28.9828 109.322 29.2292 109.504 29.2516C109.687 29.274 109.86 29.0724 109.898 28.7972C109.936 28.522 109.818 28.2756 109.639 28.2532C109.46 28.2308 109.28 28.4324 109.245 28.7076Z" fill="#263238"/>
<path d="M112.641 29.2161C112.605 29.4913 112.721 29.7345 112.9 29.7569C113.079 29.7793 113.258 29.5777 113.293 29.3025C113.329 29.0273 113.217 28.7841 113.034 28.7585C112.852 28.7329 112.669 28.9377 112.641 29.2161Z" fill="#263238"/>
<path d="M112.96 28.765L113.648 28.6626C113.648 28.6626 113.223 29.1202 112.96 28.765Z" fill="#263238"/>
<path d="M108.986 26.5986C109.01 26.6017 109.034 26.5999 109.057 26.5933C109.08 26.5867 109.102 26.5754 109.12 26.5602C109.284 26.4364 109.474 26.3525 109.676 26.3153C109.878 26.278 110.085 26.2885 110.282 26.3458C110.322 26.3615 110.367 26.3605 110.407 26.3431C110.446 26.3257 110.478 26.2933 110.493 26.253C110.509 26.2127 110.508 26.1678 110.491 26.1282C110.473 26.0886 110.441 26.0575 110.4 26.0418C110.153 25.9629 109.89 25.9447 109.634 25.9887C109.377 26.0327 109.136 26.1376 108.928 26.2946C108.911 26.307 108.896 26.3228 108.885 26.341C108.874 26.3592 108.866 26.3795 108.863 26.4007C108.859 26.4219 108.86 26.4436 108.866 26.4644C108.871 26.4852 108.88 26.5047 108.893 26.5218C108.914 26.5577 108.947 26.585 108.986 26.5986Z" fill="#263238"/>
<path d="M113.95 27.6195C113.968 27.6273 113.988 27.6314 114.009 27.6314C114.029 27.6314 114.049 27.6273 114.068 27.6195C114.087 27.61 114.105 27.5967 114.119 27.5804C114.133 27.5641 114.144 27.5451 114.151 27.5245C114.158 27.504 114.161 27.4823 114.159 27.4607C114.157 27.4391 114.151 27.418 114.142 27.3987C114.032 27.1636 113.867 26.9582 113.662 26.7995C113.456 26.6409 113.216 26.5336 112.961 26.4867C112.939 26.4845 112.918 26.4866 112.897 26.4928C112.876 26.499 112.857 26.5092 112.84 26.5229C112.824 26.5366 112.81 26.5535 112.8 26.5725C112.79 26.5916 112.784 26.6124 112.782 26.6339C112.779 26.6552 112.78 26.6768 112.786 26.6974C112.792 26.718 112.802 26.7373 112.816 26.754C112.829 26.7707 112.846 26.7846 112.865 26.7947C112.883 26.8049 112.904 26.8111 112.926 26.8131C113.127 26.8514 113.317 26.937 113.479 27.0626C113.642 27.1883 113.772 27.3506 113.86 27.5363C113.878 27.5748 113.91 27.6047 113.95 27.6195Z" fill="#263238"/>
<path d="M109.556 28.2562L110.244 28.1538C110.244 28.1538 109.834 28.6274 109.556 28.2562Z" fill="#263238"/>
<path d="M91.908 56.1953C91.908 56.1953 95.2424 62.5377 89.9272 70.8801C91.3288 71.9521 101.303 68.6913 104.142 63.0529C104.03 58.6977 91.908 56.1953 91.908 56.1953Z" fill="#007FFF"/>
<path d="M99.821 42.4612C98.861 42.4612 97.8466 42.4324 96.8642 42.4324C95.8818 42.4324 94.8866 42.4324 93.9266 42.4804C93.0177 42.5045 92.1113 42.5868 91.213 42.7268C90.9078 42.7691 90.6076 42.842 90.317 42.9444C89.9402 43.1366 89.5748 43.3503 89.2226 43.5844C87.6762 44.6755 86.2619 45.9427 85.0082 47.3604C83.6802 48.8036 82.3938 50.394 81.2034 51.9684L81.1778 52.0036C80.9964 52.244 80.7336 52.4098 80.4386 52.47C80.1436 52.5301 79.8368 52.4805 79.5758 52.3303C79.3148 52.1802 79.1177 51.9399 79.0214 51.6547C78.9251 51.3694 78.9363 51.0588 79.053 50.7812C79.4767 49.7885 79.952 48.8187 80.477 47.8756C80.9986 46.938 81.5554 46.0164 82.1698 45.1204C83.4136 43.2399 84.9225 41.5488 86.6498 40.0996C87.1272 39.7157 87.6296 39.364 88.1538 39.0468C88.2882 38.9636 88.525 38.8388 88.6946 38.7588C88.8642 38.6788 89.053 38.5956 89.213 38.538C89.373 38.4804 89.533 38.4164 89.6994 38.3684C89.8658 38.3204 90.0194 38.2724 90.1634 38.2276C91.2862 37.9402 92.4301 37.7423 93.5842 37.6356C94.6818 37.5236 95.7602 37.4692 96.8354 37.4468C97.9106 37.4244 98.9602 37.4468 100.071 37.5172C100.728 37.5418 101.348 37.8266 101.796 38.3088C102.243 38.7909 102.481 39.4311 102.456 40.0884C102.432 40.7457 102.147 41.3664 101.665 41.8137C101.182 42.2611 100.542 42.4986 99.885 42.474L99.821 42.4612Z" fill="#263238"/>
<path opacity="0.5" d="M108.89 27.2582C108.678 27.2809 108.477 27.3612 108.308 27.4904C108.138 27.6196 108.008 27.7927 107.93 27.991C107.29 29.6198 107.901 30.3078 109.111 30.551C110.442 30.8294 110.976 30.1766 111.828 30.231C112.679 30.2854 113.338 31.6198 113.866 31.2262C114.394 30.8326 114.804 29.0662 114.208 28.3462C113.709 27.7158 110.474 27.1014 108.89 27.2582Z" fill="#007FFF"/>
<path d="M113.658 31.4851C113.367 31.4851 113.079 31.2323 112.794 30.9859C112.509 30.7395 112.154 30.4355 111.818 30.4163C111.518 30.4165 111.22 30.4741 110.941 30.5859C110.347 30.8208 109.697 30.8754 109.073 30.7427C108.356 30.5923 107.892 30.3043 107.658 29.8691C107.399 29.3859 107.431 28.7523 107.757 27.9235C107.847 27.6927 107.999 27.4912 108.196 27.3415C108.393 27.1917 108.628 27.0997 108.874 27.0755C110.474 26.9155 113.796 27.5267 114.353 28.2147C114.664 28.6859 114.779 29.2601 114.673 29.8147C114.586 30.5091 114.314 31.1171 113.981 31.3635C113.891 31.4403 113.777 31.4833 113.658 31.4851ZM111.738 30.0451H111.834C112.321 30.0803 112.695 30.4003 113.037 30.7203C113.38 31.0403 113.607 31.2003 113.757 31.0915C113.997 30.9091 114.228 30.3619 114.298 29.7891C114.394 29.3319 114.31 28.8553 114.065 28.4579C113.629 27.9203 110.449 27.3027 108.909 27.4563C108.731 27.4736 108.56 27.5406 108.418 27.6497C108.275 27.7589 108.166 27.9059 108.103 28.0739C107.821 28.7811 107.783 29.3315 107.985 29.7059C108.186 30.0803 108.545 30.2659 109.146 30.3907C109.708 30.5095 110.293 30.4594 110.826 30.2467C111.118 30.1303 111.427 30.0622 111.741 30.0451H111.738Z" fill="#263238"/>
<path d="M108.973 32.656C109.527 32.0864 111.153 30.2464 111.962 30.3488C112.772 30.4512 113.242 32.5088 113.143 33.568C113.063 34.4416 112.948 35.6576 110.509 35.424C108.071 35.1904 108.09 33.568 108.973 32.656Z" fill="#263238"/>
<path d="M94.0809 52.6787C93.7114 53.4859 93.2769 54.2618 92.7817 54.9987C94.7945 56.6787 100.881 61.7411 104.507 62.5891C105.079 61.8627 105.623 61.1171 106.135 60.3779C102.551 59.6291 96.2921 54.5059 94.0809 52.6787Z" fill="#263238"/>
<path d="M105.088 51.1746C103.507 51.1746 101.83 50.589 100.928 49.3058C100.398 48.4932 100.172 47.5201 100.288 46.557C100.437 44.7446 101.09 43.0099 102.173 41.549C102.519 41.1335 102.89 40.7391 103.283 40.3682C103.52 40.1378 103.763 39.901 103.987 39.6578C104.861 38.7202 105.267 37.7762 105.267 36.7778C105.279 36.2924 105.133 35.8163 104.851 35.421C104.751 35.2908 104.624 35.1844 104.478 35.1097C104.331 35.0349 104.171 34.9937 104.006 34.989C103.762 34.9993 103.523 35.0593 103.303 35.1655C103.082 35.2717 102.886 35.4219 102.726 35.6066C102.712 35.6218 102.695 35.634 102.677 35.6426C102.658 35.6512 102.638 35.656 102.617 35.6567C102.596 35.6574 102.576 35.6541 102.556 35.6469C102.537 35.6397 102.519 35.6287 102.504 35.6146C102.489 35.6006 102.477 35.5836 102.468 35.5649C102.46 35.5461 102.455 35.5258 102.454 35.5051C102.453 35.4845 102.457 35.4639 102.464 35.4445C102.471 35.4251 102.482 35.4074 102.496 35.3922C102.684 35.1731 102.917 34.996 103.178 34.8725C103.44 34.749 103.724 34.6819 104.013 34.6754C104.222 34.6806 104.428 34.7323 104.615 34.827C104.802 34.9217 104.966 35.0568 105.094 35.2226C105.427 35.6691 105.598 36.2151 105.581 36.7714C105.597 37.8562 105.152 38.8706 104.221 39.8722C103.99 40.1218 103.744 40.3618 103.507 40.5922C103.122 40.9534 102.76 41.3381 102.422 41.7442C101.377 43.1557 100.747 44.8318 100.605 46.5826C100.498 47.472 100.705 48.3707 101.19 49.1234C102.355 50.7554 104.976 51.1746 106.733 50.6242C109.248 49.837 110.323 47.3602 110.915 45.5682C111.587 43.4788 111.92 41.2956 111.904 39.101C111.902 37.9997 111.827 36.8997 111.68 35.8082C111.638 35.4722 111.565 35.1362 111.485 34.7778C111.308 34.1177 111.227 33.4355 111.245 32.7522C111.249 32.7109 111.269 32.6728 111.301 32.6459C111.332 32.6191 111.373 32.6056 111.414 32.6082C111.435 32.6099 111.455 32.6155 111.474 32.6249C111.492 32.6344 111.508 32.6473 111.522 32.6631C111.535 32.6788 111.545 32.6971 111.552 32.7168C111.558 32.7365 111.56 32.7572 111.558 32.7778C111.546 33.4256 111.624 34.072 111.792 34.6978C111.869 35.0466 111.949 35.4082 111.994 35.7538C112.14 36.8593 112.215 37.9731 112.218 39.0882C112.234 41.3168 111.894 43.5336 111.21 45.6546C110.598 47.5138 109.475 50.0802 106.826 50.909C106.263 51.086 105.677 51.1755 105.088 51.1746Z" fill="#263238"/>
</svg>
