<svg width="25" height="25" viewBox="0 0 25 25" fill="none" xmlns="http://www.w3.org/2000/svg">
<g clip-path="url(#clip0_1955_25)">
<path d="M12.5 19.2707L9.375 17.7082L3.125 20.8332V7.2915L9.375 4.1665L15.625 7.2915L21.875 4.1665V11.4582" stroke="white" stroke-width="1.5" stroke-linecap="round" stroke-linejoin="round"/>
<path d="M9.375 4.1665V17.7082" stroke="white" stroke-width="1.5" stroke-linecap="round" stroke-linejoin="round"/>
<path d="M15.625 7.2915V12.4998" stroke="white" stroke-width="1.5" stroke-linecap="round" stroke-linejoin="round"/>
<path d="M22.0011 20.9596C22.4382 20.5226 22.7359 19.9657 22.8566 19.3595C22.9772 18.7533 22.9154 18.1249 22.6789 17.5538C22.4424 16.9828 22.0419 16.4947 21.5279 16.1512C21.014 15.8078 20.4098 15.6245 19.7917 15.6245C19.1736 15.6245 18.5694 15.8078 18.0554 16.1512C17.5415 16.4947 17.141 16.9828 16.9045 17.5538C16.668 18.1249 16.6061 18.7533 16.7268 19.3595C16.8475 19.9657 17.1452 20.5226 17.5823 20.9596C18.0177 21.396 18.7542 22.0481 19.7917 22.9168C20.8865 21.9898 21.624 21.3377 22.0011 20.9596Z" stroke="white" stroke-width="1.5" stroke-linecap="round" stroke-linejoin="round"/>
<path d="M19.7917 18.75V18.76" stroke="white" stroke-width="1.5" stroke-linecap="round" stroke-linejoin="round"/>
</g>
<defs>
<clipPath id="clip0_1955_25">
<rect width="25" height="25" fill="white"/>
</clipPath>
</defs>
</svg>
