<svg width="723" height="116" viewBox="0 0 723 116" fill="none" xmlns="http://www.w3.org/2000/svg">
<path d="M60.4621 115.761C53.518 115.761 49.7665 114.647 49.2078 112.418L45.2568 97.0135H26.2202L22.7481 111.821C22.2692 114.288 18.438 115.522 11.2543 115.522C7.42307 115.522 4.58953 115.323 2.75372 114.925C0.917907 114.448 0 114.089 0 113.851L21.1917 33.0087C21.1917 32.3719 26.6592 32.0534 37.5943 32.0534C48.5293 32.0534 53.9969 32.3719 53.9969 33.0087L74.7096 113.97C74.7096 114.527 72.8738 114.965 69.2022 115.284C65.5306 115.602 62.6172 115.761 60.4621 115.761ZM29.2134 81.8482H41.7847L36.397 57.1299H35.6786L29.2134 81.8482Z" fill="#007FFF"/>
<path d="M115.642 113.612C115.642 115.204 111.691 116 103.789 116C95.8873 116 91.9363 115.204 91.9363 113.612V53.667H77.5691C76.2122 53.667 75.2543 51.836 74.6956 48.1741C74.4561 46.4227 74.3364 44.6315 74.3364 42.8005C74.3364 40.9695 74.4561 39.1784 74.6956 37.427C75.2543 33.765 76.2122 31.934 77.5691 31.934H129.65C131.007 31.934 131.965 33.765 132.524 37.427C132.763 39.1784 132.883 40.9695 132.883 42.8005C132.883 44.6315 132.763 46.4227 132.524 48.1741C131.965 51.836 131.007 53.667 129.65 53.667H115.642V113.612Z" fill="#007FFF"/>
<path d="M138.504 108.477V34.2029C138.504 32.5311 142.535 31.6952 150.597 31.6952C158.738 31.6952 162.809 32.5311 162.809 34.2029V92.7147H181.247C182.684 92.7147 183.681 94.5855 184.24 98.327C184.48 100.158 184.599 102.029 184.599 103.939C184.599 105.85 184.48 107.8 184.24 109.791C183.602 113.612 182.564 115.522 181.127 115.522H144.251C142.495 115.522 141.099 114.806 140.061 113.373C139.023 111.94 138.504 110.308 138.504 108.477Z" fill="#007FFF"/>
<path d="M248.003 115.761C241.059 115.761 237.308 114.647 236.749 112.418L232.798 97.0135H213.761L210.289 111.821C209.81 114.288 205.979 115.522 198.795 115.522C194.964 115.522 192.131 115.323 190.295 114.925C188.459 114.448 187.541 114.089 187.541 113.851L208.733 33.0087C208.733 32.3719 214.2 32.0534 225.135 32.0534C236.07 32.0534 241.538 32.3719 241.538 33.0087L262.251 113.97C262.251 114.527 260.415 114.965 256.743 115.284C253.072 115.602 250.158 115.761 248.003 115.761ZM216.754 81.8482H229.326L223.938 57.1299H223.22L216.754 81.8482Z" fill="#007FFF"/>
<path d="M335.796 112.895C335.796 114.567 332.044 115.403 324.541 115.403C317.039 115.403 312.968 114.806 312.329 113.612L292.335 76.3553V113.492C292.335 114.925 288.623 115.642 281.2 115.642C273.857 115.642 270.185 114.925 270.185 113.492V33.6058C270.185 32.4117 273.338 31.8146 279.644 31.8146C282.118 31.8146 284.992 32.0534 288.264 32.5311C291.617 32.9291 293.652 33.7252 294.37 34.9193L313.527 71.6982V34.2029C313.527 32.6903 317.238 31.934 324.661 31.934C332.084 31.934 335.796 32.6903 335.796 34.2029V112.895Z" fill="#007FFF"/>
<path d="M383.859 113.612C383.859 115.204 379.908 116 372.006 116C364.104 116 360.153 115.204 360.153 113.612V53.667H345.786C344.429 53.667 343.471 51.836 342.912 48.1741C342.673 46.4227 342.553 44.6315 342.553 42.8005C342.553 40.9695 342.673 39.1784 342.912 37.427C343.471 33.765 344.429 31.934 345.786 31.934H397.867C399.224 31.934 400.181 33.765 400.74 37.427C400.98 39.1784 401.099 40.9695 401.099 42.8005C401.099 44.6315 400.98 46.4227 400.74 48.1741C400.181 51.836 399.224 53.667 397.867 53.667H383.859V113.612Z" fill="#007FFF"/>
<path d="M415.82 94.9835V52.4729H407.32C405.963 52.4729 405.005 50.7613 404.446 47.3382C404.207 45.6664 404.087 43.9548 404.087 42.2035C404.087 40.4521 404.207 38.7405 404.446 37.0687C405.005 33.6456 405.963 31.934 407.32 31.934H447.548C448.905 31.934 449.823 33.6456 450.302 37.0687C450.621 38.7405 450.78 40.4521 450.78 42.2035C450.78 43.9548 450.621 45.6664 450.302 47.3382C449.823 50.7613 448.905 52.4729 447.548 52.4729H439.526V94.9835H447.907C449.264 94.9835 450.222 96.6951 450.78 100.118C451.1 101.79 451.259 103.502 451.259 105.253C451.259 107.004 451.1 108.716 450.78 110.388C450.222 113.811 449.264 115.522 447.907 115.522H407.559C406.202 115.522 405.284 113.811 404.805 110.388C404.486 108.716 404.326 107.004 404.326 105.253C404.326 103.502 404.486 101.79 404.805 100.118C405.284 96.6951 406.202 94.9835 407.559 94.9835H415.82Z" fill="#007FFF"/>
<path d="M459.246 110.029V38.3823C459.246 36.3921 459.725 34.8397 460.683 33.7252C461.721 32.5311 463.038 31.934 464.634 31.934H484.629C497.32 31.934 506.938 35.1183 513.483 41.487C520.108 47.8556 523.42 57.8862 523.42 71.5788C523.42 100.874 510.889 115.522 485.826 115.522H465.353C461.282 115.522 459.246 113.691 459.246 110.029ZM482.234 54.6223V90.3264C482.234 91.9982 482.354 93.0729 482.593 93.5506C482.833 93.9486 483.551 94.1476 484.748 94.1476C489.138 94.1476 492.451 92.5157 494.686 89.2517C497 85.9878 498.158 80.5745 498.158 73.0117C498.158 65.3694 496.961 60.3939 494.566 58.0852C492.251 55.7766 488.54 54.6223 483.431 54.6223H482.234Z" fill="#007FFF"/>
<path d="M589.295 115.761C582.351 115.761 578.6 114.647 578.041 112.418L574.09 97.0135H555.053L551.581 111.821C551.102 114.288 547.271 115.522 540.087 115.522C536.256 115.522 533.423 115.323 531.587 114.925C529.751 114.448 528.833 114.089 528.833 113.851L550.025 33.0087C550.025 32.3719 555.492 32.0534 566.427 32.0534C577.362 32.0534 582.83 32.3719 582.83 33.0087L603.543 113.97C603.543 114.527 601.707 114.965 598.035 115.284C594.364 115.602 591.45 115.761 589.295 115.761ZM558.046 81.8482H570.618L565.23 57.1299H564.512L558.046 81.8482Z" fill="#007FFF"/>
<path fill-rule="evenodd" clip-rule="evenodd" d="M678.471 85.5004C678.476 86.8053 678.442 88.7845 678.442 88.7845C678.442 88.7845 676.648 88.0872 675.772 87.5081C674.896 86.9298 674.339 87.0179 673.724 86.7997C673.114 86.5872 666.871 86.8116 666.233 86.6109C665.594 86.4095 665.606 86.2976 665.305 86.2032C665.009 86.1088 662.461 85.8899 662.461 85.8899C662.461 85.8899 662.519 84.366 662.548 84.0471C662.577 83.7227 662.502 83.5101 662.456 83.3562C662.409 83.1968 662.461 81.8974 662.136 81.7261C661.817 81.5547 660.621 81.661 660.621 81.661C660.621 81.661 660.419 81.1708 660.175 81.2477C659.931 81.3247 648.547 87.2011 647.514 87.4494C646.486 87.6977 642.32 88.4124 641.92 88.3942C641.52 88.3767 641.212 88.2348 641.316 88.0285C641.426 87.8215 643.162 85.5178 643.417 85.3227C643.672 85.1284 643.695 85.406 643.974 85.1284C644.258 84.8507 645.541 82.9366 646.243 82.4995C646.945 82.0624 649.312 81.1946 650.009 80.9994C650.711 80.8051 651.105 80.226 651.105 80.226C651.105 80.226 661.376 78.3595 662.861 78.3008C664.347 78.2357 665.583 78.6958 666.047 78.8259C666.511 78.956 669.232 78.6958 669.865 78.6427C670.497 78.5895 670.504 78.7672 671.119 78.584C671.733 78.3952 674.589 78.3182 676.184 77.9636C677.78 77.6035 678.476 77.4615 678.476 77.4615C678.476 77.4615 678.464 84.1947 678.471 85.5004ZM707.721 47.3399C707.721 47.3399 707.031 47.0266 706.932 46.9029C706.827 46.7728 706.503 46.5546 706.422 46.3412C706.346 46.1286 706.682 45.5266 706.682 45.5266C706.682 45.5266 706.689 45.3314 706.7 45.0839C706.711 44.8356 706.827 43.8377 706.497 43.4649C706.166 43.0992 705.905 42.8921 705.812 42.8152C705.719 42.739 704.895 42.6026 704.895 42.6026C704.895 42.6026 704.565 42.1481 704.425 42.0775C704.286 42.0124 702.928 42.8334 702.928 42.8334C702.928 42.8334 703.079 43.3292 703.172 43.5006C703.259 43.6719 703.909 43.9202 703.909 43.9202C703.909 43.9202 703.608 43.9908 703.259 44.2153C702.911 44.4398 703.027 44.5223 703.027 44.5223C703.027 44.5223 702.319 44.3628 702.278 44.3692C702.238 44.3747 700.892 45.007 700.892 45.007C700.892 45.007 700.839 45.1426 700.729 45.2783C700.619 45.4084 699.969 44.7119 699.075 44.6468C698.187 44.5818 696.517 44.1622 696.139 44.2978C695.762 44.4279 692.623 46.0406 692.623 46.0406C692.623 46.0406 692.46 45.9636 692.373 45.8692C692.286 45.7685 690.192 47.0916 690.145 47.1686C690.099 47.2511 690.319 47.6763 690.319 47.6763L685.962 50.4051L685.637 50.4701C685.637 50.4701 682.01 52.4779 681.662 52.7738C681.32 53.0688 681.035 53.5535 681.035 53.5535C681.035 53.5535 679.103 54.7109 678.928 54.9179C678.749 55.1242 678.906 55.0774 679.248 55.7977C679.591 56.5179 683.246 62.6078 683.42 62.8735C683.594 63.1393 688.625 60.8118 688.984 60.6175C689.344 60.4223 689.403 60.5342 689.623 60.6706C689.838 60.8063 689.118 61.2727 688.538 61.7336C687.958 62.1937 687.76 62.7728 687.47 63.0385C687.18 63.3042 683.693 63.0504 683.693 63.0504C683.693 63.0504 681.894 63.7001 680.739 64.4323C679.591 65.1652 678.859 66.5058 678.506 66.9191C678.151 67.3324 673.585 69.5178 671.56 70.3627C669.54 71.2067 668.6 71.9333 668.6 71.9333L666.331 72.5124C665.826 72.6425 664.991 72.4767 663.801 72.3942C662.618 72.3117 660.135 72.3466 657.964 72.9788C655.794 73.611 650.525 76.3629 650.328 76.47C650.131 76.5762 650.171 76.3748 649.736 76.4279C649.301 76.4811 647.252 77.4147 646.818 77.3965C646.382 77.379 646.335 77.2259 646.103 77.1307C645.877 77.0363 645.384 77.1958 645.007 77.2196C644.63 77.2434 644.183 76.8713 643.666 76.7119C643.156 76.5524 641.914 76.4993 641.717 76.5342C641.52 76.5699 641.247 76.865 641.108 76.9364C640.968 77.0133 640.829 77.0895 640.446 77.5147C640.063 77.9399 638.444 81.945 638.107 83.545C637.766 85.1458 636.477 87.9928 636.477 87.9928C636.477 87.9928 635.595 87.7445 635.357 87.762C635.119 87.7858 631.464 85.9843 631.278 85.9081C631.092 85.8248 631.046 86.2151 631.046 86.2151C631.046 86.2151 630.147 86.9528 629.299 87.3074C628.446 87.662 627.802 87.7921 627.414 88.0753C627.024 88.3593 626.102 90.2076 626.102 90.2076C626.102 90.2076 627.796 91.3237 629.299 91.8139C630.808 92.3042 634.005 92.7476 634.005 92.7476C634.005 92.7476 634.022 92.9181 633.593 93.663C633.164 94.4071 627.93 102.008 627.756 102.357C627.582 102.705 627.9 103.042 628.063 103.278C628.226 103.52 628.615 103.922 628.835 104.347C629.056 104.773 629.461 107.791 629.461 107.791C629.461 107.791 629.908 107.548 630.263 107.135C630.616 106.722 631.98 104.819 633.402 103.178C634.823 101.53 639.721 92.3335 639.721 92.3335C639.721 92.3335 640.672 92.109 641.769 92.021C642.866 91.9321 648.593 89.9125 651.012 89.7649C653.432 89.6111 656.229 89.6936 656.734 89.6404C657.239 89.5817 657.604 89.5286 658.626 89.7761C659.647 90.0188 661.469 90.7748 662.229 91.2C662.989 91.6251 663.505 90.9049 663.505 90.9049C663.505 90.9049 668.055 92.9776 669.894 93.8344C671.733 94.6903 676.794 95.6882 677.872 96.0428C678.952 96.4029 680.954 96.2617 681.946 95.9071C682.938 95.5525 683.38 95.1686 683.954 94.4539C684.529 93.7392 684.847 92.5112 684.847 92.5112C684.847 92.5112 684.888 92.4874 685.074 92.3335C685.259 92.1804 687.522 86.4039 688.254 83.173C688.991 79.9365 689.205 75.8615 689.205 75.8615C689.205 75.8615 689.803 75.572 690.249 75.33C690.696 75.0873 690.76 74.8692 690.76 74.8692C690.76 74.8692 690.928 75.3237 691.073 75.6069C691.219 75.8909 691.573 75.737 691.573 75.737L693.482 79.8595C693.482 79.8595 693.493 80.2911 693.256 80.5806C693.017 80.8757 691.781 81.2358 691.781 81.2358C691.781 81.2358 691.631 83.0611 691.596 83.2618C691.561 83.4625 691.904 83.3324 692.205 83.2023C692.513 83.073 692.756 82.9961 693.209 82.4582C693.661 81.9212 694.961 79.8714 695.008 79.1393C695.054 78.4071 693.952 75.2761 693.952 75.2761C693.952 75.2761 694.938 74.7748 695.385 74.609C695.831 74.4376 695.495 74.5503 695.402 74.2369C695.31 73.9236 695.53 73.7998 695.779 73.5936C696.029 73.3866 696.273 73.5817 696.487 73.7173C696.702 73.853 696.505 73.8887 696.511 74.1013C696.517 74.3139 696.383 74.609 696.371 75.1936C696.359 75.7846 696.708 76.7944 696.667 77.3965C696.627 77.9993 695.814 83.1317 695.954 83.5276C696.093 83.9234 696 84.2304 696.063 84.4842C696.127 84.7381 696.023 85.0157 696.023 85.0157C696.023 85.0157 695.727 85.6836 695.809 85.9668C695.884 86.25 697.044 86.3508 697.311 86.2445C697.578 86.1382 697.55 86.1501 697.723 84.1653C697.898 82.1806 697.224 74.4202 697.224 74.4202C697.224 74.4202 697.254 74.4027 697.34 74.3726C697.434 74.3432 697.851 74.6621 697.972 74.8279C698.095 74.9929 698.599 75.8496 698.872 75.9972C699.145 76.1392 699.441 75.9615 699.644 75.8671C699.847 75.7727 699.807 75.944 699.952 76.0797C700.096 76.2217 700.485 76.3517 700.485 76.3517C700.485 76.3517 700.491 78.1643 700.497 78.2532C700.508 78.342 699.603 78.2476 699.441 78.2825C699.279 78.3182 699.296 78.342 699.191 78.7966C699.092 79.2511 699.388 82.5415 699.464 82.7184C699.54 82.8953 700.833 82.8834 701.054 82.8898C701.275 82.8953 701.385 82.8009 701.385 82.8009C701.385 82.8009 702.215 82.4765 702.412 82.1695C702.609 81.8617 702.847 81.2239 702.772 80.468C702.696 79.712 702.389 79.0917 702.232 79.1274C702.069 79.1631 701.872 79.0861 701.751 79.0623C701.628 79.0385 701.657 78.8204 701.623 78.5134C701.588 78.2064 701.46 76.1273 701.46 76.1273L701.93 75.8734C702.168 75.7433 702.128 75.7671 702.209 75.5958C702.296 75.4181 702.296 75.2174 702.319 74.9874C702.342 74.7565 702.476 74.7391 702.551 74.6447C702.626 74.5503 702.685 74.5558 702.917 74.7922C703.149 75.0286 703.364 74.5503 703.497 74.225C703.63 73.9006 703.317 73.5404 703.201 73.316C703.085 73.0915 703.206 73.0915 703.305 72.8963C703.398 72.7012 703.608 71.662 703.608 71.662C703.608 71.662 703.903 71.5732 704.129 71.4312C704.356 71.29 704.263 71.071 704.188 70.7283C704.118 70.3865 703.776 70.392 703.776 70.392L703.421 69.8193C703.421 69.8193 703.996 69.8899 704.733 69.801C705.47 69.713 708.226 69.8542 708.226 69.8542C708.226 69.8542 708.29 69.8724 708.499 70.2326C708.708 70.5927 709.404 71.1424 709.688 71.3138C709.972 71.4843 710.164 71.5081 710.297 71.5264C710.431 71.5438 710.628 71.4018 710.727 71.455C710.825 71.5081 711.313 71.6858 711.551 71.6969C711.789 71.7152 711.859 71.4018 711.928 71.1837C711.992 70.9647 711.864 70.5808 711.864 70.5808C711.864 70.5808 712.323 70.2976 712.45 69.9549C712.572 69.6122 712.444 69.4702 712.444 69.4702C712.444 69.4702 712.52 69.4115 712.688 69.3941C712.857 69.3758 712.955 68.815 712.88 68.5667C712.804 68.3192 712.137 67.9702 712.137 67.9702C712.137 67.9702 712.102 67.7338 712.102 67.5331C712.102 67.3324 713.117 64.0721 713.326 62.9973C713.529 61.9224 713.75 58.06 713.75 58.06C713.75 58.06 713.93 57.9886 714 57.9886C714.069 57.9886 714.371 57.8117 714.417 57.6642C714.464 57.5103 714.15 56.4354 714.15 56.4354C714.15 56.4354 715.172 55.5906 715.537 55.4669C715.903 55.3431 716.913 55.6676 717.475 55.6501C718.038 55.6319 718.456 55.2424 718.578 55.3011C718.7 55.3606 719.019 56.1165 719.182 56.3172C719.344 56.5243 720.492 56.6774 720.655 56.6425C720.817 56.6068 720.76 56.2934 720.783 56.1697C720.806 56.0459 720.975 55.8865 720.975 55.8865L721.148 55.8801C721.148 55.8801 721.514 56.2998 721.74 56.4299C721.967 56.5592 722.349 56.3347 722.57 56.034C722.79 55.7326 723.075 54.1969 722.982 53.6479C722.889 53.0982 722.721 52.9744 722.535 52.8919C722.349 52.8087 721.949 52.8618 721.816 52.88C721.683 52.8975 720.052 52.5493 720.052 52.5493C720.052 52.5493 719.994 52.5429 719.976 52.4073C719.959 52.2716 719.918 52.0947 719.878 52.0114C719.831 51.9289 719.756 51.4744 719.756 51.4744C719.756 51.4744 720.8 51.0135 720.916 50.8953C721.032 50.7771 721.172 47.3217 721.061 47.2154C720.951 47.1091 719.709 46.8791 719.709 46.8791C719.709 46.8791 719.309 46.4594 719.152 46.3301C718.996 46.2 718.834 46.1937 718.834 46.1937C718.834 46.1937 718.619 45.5797 718.299 44.9713C717.98 44.3628 717.684 44.2684 716.924 44.0852C716.164 43.8964 713.558 43.495 712.596 43.8377C711.632 44.1796 711.261 44.4929 710.727 45.2489C710.199 46.0112 710.152 46.4713 710.088 46.6839C710.025 46.9029 709.863 47.1329 709.735 47.2392C709.613 47.3399 709.462 47.5351 709.178 47.47C708.876 47.4399 707.721 47.3399 707.721 47.3399ZM704.988 48.6099C704.837 48.5449 704.733 48.4735 704.809 48.4029C704.89 48.3323 705.319 47.9777 705.458 47.8064C705.598 47.6295 705.917 47.3867 705.917 47.3867C705.917 47.3867 705.911 47.3336 705.911 47.3518L706.665 48.1078C706.665 48.1078 706.647 48.3855 706.566 48.4561C706.485 48.5211 705.133 48.675 704.988 48.6099ZM712.561 58.1544C712.561 58.1544 712.543 58.9984 712.462 59.0222C712.386 59.046 712.229 58.9873 712.27 58.8921C712.311 58.7977 712.311 58.2195 712.369 58.16C712.421 58.1013 712.561 58.1544 712.561 58.1544ZM709.915 65.289C710.013 65.2358 710.803 65.0407 710.803 65.0407C710.803 65.0407 711.064 65.3009 711.023 65.3953C710.983 65.4897 710.837 65.8617 710.628 65.9387C710.419 66.0156 709.851 66.1632 709.474 66.4233C709.091 66.6827 708.986 67.0905 708.783 67.1436C708.58 67.1968 708.296 67.1373 708.151 67.1262C708 67.1143 707.373 66.9667 707.35 66.8898C707.327 66.8128 707.478 66.624 707.704 66.4051C707.93 66.1925 708.94 65.1176 709.004 65.0645C709.067 65.0113 709.084 64.8757 709.19 64.982C709.299 65.0883 709.392 65.3064 709.474 65.354C709.543 65.4008 709.816 65.3421 709.915 65.289ZM710.837 63.1329C710.889 63.198 710.983 63.2043 710.993 63.3931C711.005 63.5882 711.092 64.468 710.941 64.4561C710.791 64.4442 710.529 63.4288 710.529 63.4288C710.588 63.3399 710.785 63.0742 710.837 63.1329ZM711.893 61.3965C711.986 61.4028 712.334 61.7217 712.311 61.8217C712.293 61.9224 711.528 64.0428 711.464 64.1903C711.4 64.3379 711.185 65.1946 711.22 64.9582C711.255 64.7218 711.22 63.2868 711.249 63.1099L711.458 61.8692C711.574 61.7154 711.8 61.3965 711.893 61.3965ZM704.124 48.1427C704.124 48.1427 703.125 47.9127 702.934 47.7477C702.737 47.5819 702.696 47.5168 702.72 47.4581C702.737 47.3931 702.9 47.0679 703.016 47.0028C703.132 46.9378 704.025 46.8672 704.356 46.8497C704.669 46.8315 705.203 46.8791 705.232 46.8735C705.232 46.8965 705.209 47.2455 705.157 47.3693C705.098 47.4994 704.745 47.8651 704.576 47.9658C704.402 48.0602 704.124 48.1427 704.124 48.1427ZM704.866 43.7782C704.866 43.6719 704.982 43.3173 705.122 43.3475C705.266 43.3824 705.644 43.4236 705.87 43.6838C706.097 43.944 706.329 44.416 706.224 44.765C706.119 45.1133 705.957 45.6915 705.771 45.5741C705.586 45.4559 704.866 43.7782 704.866 43.7782ZM712.386 59.6013C712.392 59.6783 712.421 60.5754 712.352 60.6286C712.282 60.6817 711.888 60.6349 711.893 60.5699C711.893 60.5048 712.148 59.595 712.177 59.5482C712.212 59.5069 712.386 59.6013 712.386 59.6013Z" fill="#0055D5"/>
<path d="M199.048 14.3253C199.248 14.0859 199.52 13.948 199.813 13.8716C200.527 13.6832 201.252 13.6595 201.983 13.7429C202.259 13.7747 202.466 13.9054 202.598 14.1453C202.822 14.5507 203.2 14.7564 203.614 14.9147C204.051 15.08 204.46 14.9685 204.853 14.7696C205.721 14.3296 206.544 13.8148 207.333 13.2388C207.872 12.8473 208.422 12.4762 208.966 12.0889C210.233 11.1853 211.548 10.3604 212.945 9.66585C213.956 9.16297 215.007 8.76468 216.07 8.38634C216.535 8.21916 216.998 8.04555 217.368 7.70017C217.612 7.4692 217.777 7.17793 217.969 6.90681C218.694 5.89588 219.312 4.81307 220.051 3.80782C220.745 2.86635 221.548 2.03067 222.449 1.2833C223.029 0.802968 223.641 0.377401 224.36 0.132293C224.561 0.0620405 224.765 0.0108557 224.979 0.000767091C225.284 -0.013016 225.414 0.159754 225.308 0.453465C225.206 0.747811 225.022 0.99636 224.83 1.23443C224.261 1.94305 223.784 2.70258 223.473 3.55793C223.142 4.47229 222.845 5.39672 222.824 6.38288C222.816 6.68938 222.835 6.99496 222.851 7.30334C222.863 7.53805 222.969 7.72736 223.173 7.86336C223.449 8.0464 223.765 8.13125 224.076 8.23054C225.398 8.65402 226.72 9.07749 228.043 9.49247C230.132 10.1481 232.186 10.8968 234.271 11.5548C234.527 11.6375 234.786 11.7082 235.042 11.7909C235.49 11.9314 235.926 11.8825 236.359 11.7243C236.779 11.5694 237.201 11.4213 237.634 11.2991C238.402 11.0788 239.144 11.1884 239.875 11.4439C240.051 11.5047 240.266 11.5796 240.266 11.8149C240.265 12.0562 240.063 12.1472 239.863 12.2209C239.678 12.2877 239.486 12.3415 239.337 12.4878C239.254 12.5714 239.241 12.6413 239.294 12.7571C239.559 13.3276 240.027 13.6111 240.615 13.7633C241.111 13.8921 241.6 14.0346 242.106 14.1259C242.603 14.2184 243.081 14.2019 243.556 14.0124C244.419 13.6685 245.258 13.2711 246.095 12.8706C247.828 12.0449 249.574 11.2487 251.405 10.653C252.37 10.3402 253.249 9.83013 254.127 9.32597C254.577 9.06808 255.024 8.80699 255.5 8.59688C255.57 8.56474 255.643 8.53354 255.715 8.5171C255.807 8.49571 255.909 8.47015 255.982 8.56274C256.062 8.66258 256.038 8.77257 255.988 8.87199C255.881 9.08074 255.712 9.2383 255.53 9.3814C255.337 9.53444 255.204 9.72041 255.154 9.96439C255.117 10.1384 255.063 10.3091 255.025 10.4861C254.975 10.7178 254.842 10.8585 254.599 10.8905C254.497 10.9038 254.396 10.9236 254.298 10.9442C254.08 10.9926 253.888 11.0646 253.775 11.2874C253.692 11.4495 253.537 11.5495 253.387 11.6505C251.946 12.6383 250.496 13.6123 249.065 14.6141C248.197 15.2228 247.328 15.8347 246.497 16.4992C246.053 16.8546 245.93 17.3503 245.986 17.8896C246.024 18.2562 245.969 18.3512 245.597 18.3673C245.209 18.386 244.87 18.2481 244.553 18.0424C244.109 17.7547 243.736 17.3869 243.392 16.9885C243.197 16.7608 242.967 16.6226 242.671 16.6022C241.607 16.5333 240.542 16.4218 239.473 16.4909C239.139 16.5109 238.812 16.5748 238.503 16.7054C238.121 16.8647 238.024 17.0663 238.133 17.4586C238.212 17.7396 238.091 17.8915 237.801 17.8903C237.073 17.8856 236.552 17.4987 236.094 16.9849C235.958 16.8318 235.818 16.6781 235.712 16.5065C235.56 16.2626 235.341 16.1271 235.078 16.0435C234.936 15.9979 234.807 15.9791 234.655 16.0585C234.345 16.2191 233.988 16.2351 233.653 16.3096C233.416 16.3634 233.18 16.4117 232.967 16.5427C232.833 16.6255 232.748 16.733 232.721 16.8881C232.657 17.2379 232.736 17.5612 232.908 17.863C232.987 18.002 233.076 18.134 233.152 18.2753C233.225 18.4102 233.317 18.5608 233.217 18.7048C233.112 18.8566 232.945 18.9542 232.753 18.9265C231.459 18.7376 230.341 18.2267 229.521 17.1629C229.28 16.8475 229.104 16.4876 228.841 16.1894C228.678 16.0041 228.486 15.8978 228.236 15.8618C226.975 15.6851 225.732 15.887 224.49 16.0371C223.099 16.2041 221.716 16.4395 220.337 16.6993C220.193 16.7258 220.109 16.7851 220.064 16.9217C219.959 17.2454 219.882 17.5811 219.913 17.9194C219.993 18.7739 220.161 19.6127 220.568 20.3855C220.786 20.805 221.126 21.112 221.488 21.4018C222.028 21.832 222.576 22.2515 223.14 22.6503C223.255 22.7297 223.365 22.8203 223.467 22.9181C223.543 22.9931 223.629 23.0822 223.581 23.2029C223.533 23.3236 223.411 23.3304 223.302 23.3303C223.157 23.3297 223.009 23.3282 222.861 23.3089C221.63 23.1535 220.429 22.8833 219.289 22.3827C218.55 22.0593 217.947 21.5446 217.408 20.9547C216.593 20.0673 215.85 19.1238 215.223 18.0945C215.097 17.8857 214.977 17.8507 214.755 17.8715C213.538 17.9843 212.316 18.06 211.105 18.2195C210.179 18.3433 209.263 18.5265 208.345 18.7059C208.32 18.7102 208.295 18.7145 208.27 18.7214C208.188 18.7513 208.048 18.6939 208.028 18.7779C208.008 18.8703 208.149 18.9066 208.223 18.9604C208.364 19.0597 208.524 19.1269 208.682 19.1995C208.804 19.2564 208.93 19.3077 209.044 19.3778C209.258 19.5097 209.5 19.65 209.461 19.9444C209.419 20.2564 209.217 20.4831 208.909 20.5749C208.383 20.7303 207.844 20.8259 207.293 20.8888C206.792 20.9465 206.378 20.7882 205.971 20.5469C205.827 20.4615 205.698 20.3615 205.605 20.2167C205.52 20.0796 205.392 20.0034 205.232 19.9725C204.823 19.8939 204.41 19.8416 204.016 19.7054C203.692 19.5919 203.392 19.4373 203.15 19.1913C203.039 19.0765 202.91 19.0395 202.752 19.0426C202.04 19.0623 201.495 18.719 201.021 18.2291C201.011 18.221 201 18.2128 200.997 18.2004C200.856 17.829 200.526 17.6899 200.201 17.5455C200.047 17.4769 199.923 17.3653 199.804 17.249C199.592 17.0453 199.499 16.8068 199.6 16.5212C199.661 16.3458 199.623 16.2299 199.452 16.1453C199.363 16.1013 199.287 16.0263 199.213 15.9547C198.959 15.7063 198.925 15.4913 199.125 15.2068C199.209 15.0869 199.213 15.0034 199.14 14.8803C199.078 14.7781 199.053 14.6556 199.012 14.5417C199.019 14.4736 199.033 14.3982 199.048 14.3253Z" fill="#0055D5"/>
</svg>
