<svg width="25" height="25" viewBox="0 0 25 25" fill="none" xmlns="http://www.w3.org/2000/svg">
<g clip-path="url(#clip0_1955_46)">
<path d="M3.125 12.5C3.125 13.7311 3.36749 14.9502 3.83863 16.0877C4.30977 17.2251 5.00032 18.2586 5.87087 19.1291C6.74142 19.9997 7.77492 20.6902 8.91234 21.1614C10.0498 21.6325 11.2689 21.875 12.5 21.875C13.7311 21.875 14.9502 21.6325 16.0877 21.1614C17.2251 20.6902 18.2586 19.9997 19.1291 19.1291C19.9997 18.2586 20.6902 17.2251 21.1614 16.0877C21.6325 14.9502 21.875 13.7311 21.875 12.5C21.875 11.2689 21.6325 10.0498 21.1614 8.91234C20.6902 7.77492 19.9997 6.74142 19.1291 5.87087C18.2586 5.00032 17.2251 4.30977 16.0877 3.83863C14.9502 3.36749 13.7311 3.125 12.5 3.125C11.2689 3.125 10.0498 3.36749 8.91234 3.83863C7.77492 4.30977 6.74142 5.00032 5.87087 5.87087C5.00032 6.74142 4.30977 7.77492 3.83863 8.91234C3.36749 10.0498 3.125 11.2689 3.125 12.5Z" stroke="white" stroke-width="1.5" stroke-linecap="round" stroke-linejoin="round"/>
<path d="M9.375 10.4165C9.375 11.2453 9.70424 12.0402 10.2903 12.6262C10.8763 13.2123 11.6712 13.5415 12.5 13.5415C13.3288 13.5415 14.1237 13.2123 14.7097 12.6262C15.2958 12.0402 15.625 11.2453 15.625 10.4165C15.625 9.5877 15.2958 8.79285 14.7097 8.2068C14.1237 7.62074 13.3288 7.2915 12.5 7.2915C11.6712 7.2915 10.8763 7.62074 10.2903 8.2068C9.70424 8.79285 9.375 9.5877 9.375 10.4165Z" stroke="white" stroke-width="1.5" stroke-linecap="round" stroke-linejoin="round"/>
<path d="M6.42505 19.6342C6.68287 18.7761 7.21043 18.024 7.92947 17.4894C8.64851 16.9548 9.52072 16.6662 10.4167 16.6665H14.5834C15.4805 16.6662 16.3538 16.9555 17.0734 17.4913C17.7929 18.0271 18.3203 18.7809 18.5771 19.6405" stroke="white" stroke-width="1.5" stroke-linecap="round" stroke-linejoin="round"/>
</g>
<defs>
<clipPath id="clip0_1955_46">
<rect width="25" height="25" fill="white"/>
</clipPath>
</defs>
</svg>
